<svg xmlns="http://www.w3.org/2000/svg" version="1.1" xmlns:xlink="http://www.w3.org/1999/xlink" width="512" height="512" x="0" y="0" viewBox="0 0 512 512" style="enable-background:new 0 0 512 512" xml:space="preserve" class=""><g><path d="M323.909 235.536c-19.208 13.59-42.642 21.586-67.909 21.586-14.11 0-27.647-2.496-40.198-7.063l30.792 115.759h78.841c29.973 0 54.356 24.384 54.356 54.356s-24.384 54.357-54.356 54.357h-196.96V512H417.26V341.968c0-27.173-10.174-53.099-28.647-73.001-17.143-18.469-39.951-30.213-64.704-33.431zM256 227.122c48.439 0 87.849-39.409 87.849-87.849v-36.425H168.151v36.425c0 48.44 39.41 87.849 87.849 87.849zM171.685 63.171 294.034 8.668C282.52 3.114 269.617 0 256 0c-39.875 0-73.625 26.707-84.315 63.171zM342.562 72.849c-2.86-16.553-10.367-31.533-21.126-43.545l-97.75 43.545z" fill="#213753" opacity="1" data-original="#000000" class=""/><path d="M349.791 420.174c0-13.431-10.926-24.356-24.356-24.356h-70.861l12.958 48.714h57.903c13.43-.001 24.356-10.928 24.356-24.358zM236.488 444.531l-55.293-207.87c-22.077 4.35-42.269 15.565-57.808 32.305-18.474 19.901-28.647 45.828-28.647 73.002v102.563z" fill="#213753" opacity="1" data-original="#000000" class=""/></g></svg>