<svg width="414" height="103" viewBox="0 0 414 103" fill="none" xmlns="http://www.w3.org/2000/svg">
<rect x="1.5" y="1.5" width="411" height="63" stroke="#9E101C" stroke-width="3"/>
<path d="M21.6895 44.0234C22.5449 44.3633 23.2188 44.627 23.7109 44.8145C24.2031 45.002 24.7188 45.166 25.2578 45.3066C25.4102 44.9199 25.4863 44.3926 25.4863 43.7246C25.4863 42.8223 25.4219 41.1699 25.293 38.7676C25.1055 35.5566 25.0117 33.0957 25.0117 31.3848C25.0117 30.2012 25.0469 29.1816 25.1172 28.3262L22.2168 28.1504L22.1641 33.6875C21.2852 33.9805 20.2949 34.127 19.1934 34.127C18.9121 34.127 18.7012 34.1211 18.5605 34.1094C18.1738 33.8047 17.7695 33.3242 17.3477 32.668C16.9375 32.0117 16.5977 31.2734 16.3281 30.4531C16.0586 29.6328 15.9238 28.8418 15.9238 28.0801C15.9238 26.7676 16.1406 25.7656 16.5742 25.0742C17.0078 24.3828 17.6172 23.9082 18.4023 23.6504C19.1875 23.3809 20.2363 23.2051 21.5488 23.123C23.5879 23.0059 25.9844 22.918 28.7383 22.8594C31.5039 22.7891 34.1465 22.7539 36.666 22.7539C37.0059 23.1875 37.2578 23.6738 37.4219 24.2129C37.5977 24.752 37.6855 25.291 37.6855 25.8301C37.6855 26.8379 37.4277 27.6816 36.9121 28.3613C36.3965 29.041 35.6348 29.3809 34.627 29.3809C33.9707 29.3809 33.1797 29.2637 32.2539 29.0293C32.043 34.5371 31.7383 39.623 31.3398 44.2871C31.2578 45.1895 31.123 45.9863 30.9355 46.6777C30.748 47.3691 30.4609 47.9727 30.0742 48.4883C29.5938 49.1211 28.9316 49.5898 28.0879 49.8945C27.2441 50.1992 26.3125 50.3516 25.293 50.3516C24.332 50.3516 23.3828 50.1816 22.4453 49.8418C21.5195 49.502 20.8223 48.875 20.3535 47.9609C20.3652 47.1992 20.459 46.5254 20.6348 45.9395C20.8105 45.3418 21.1621 44.7031 21.6895 44.0234ZM38.4941 38.5742C38.4941 33.1367 38.5996 29.3984 38.8105 27.3594L36.8242 27.0078C36.543 25.9297 36.4023 24.7695 36.4023 23.5273C36.5781 23.3047 36.9062 23.0293 37.3867 22.7012C37.8672 22.373 38.4238 22.0859 39.0566 21.8398C39.7012 21.5938 40.3398 21.4707 40.9727 21.4707C42.4141 21.4707 43.4863 21.8398 44.1895 22.5781C44.8926 23.3164 45.2441 24.4473 45.2441 25.9707C45.2441 26.6387 45.1855 27.7168 45.0684 29.2051C44.9512 30.6816 44.7812 32.2695 44.5586 33.9688C44.3359 35.6562 44.0781 37.1621 43.7852 38.4863C43.7852 38.5566 43.8262 38.6211 43.9082 38.6797C43.9902 38.7383 44.0781 38.7676 44.1719 38.7676C44.2773 38.7676 44.3477 38.7266 44.3828 38.6445C44.8516 36.7812 45.3203 35.2227 45.7891 33.9688C46.2578 32.7148 46.9668 31.6016 47.916 30.6289C48.8652 29.6562 50.0957 29.1699 51.6074 29.1699C53.4824 29.1699 54.8301 29.7441 55.6504 30.8926C56.4707 32.0293 56.8809 33.4648 56.8809 35.1992C56.8809 36.7461 56.6992 38.2402 56.3359 39.6816C55.9727 41.1113 55.5215 42.6055 54.9824 44.1641C55.0059 44.1055 54.9238 44.334 54.7363 44.8496L54.7715 44.8848L57.373 43.7949C58.2871 44.5801 58.8203 45.623 58.9727 46.9238C58.9727 47.0059 58.709 47.3457 58.1816 47.9434C57.6543 48.5293 56.957 49.0801 56.0898 49.5957C55.2344 50.0996 54.25 50.3516 53.1367 50.3516C52.0234 50.3516 51.1152 50.0527 50.4121 49.4551C49.709 48.8574 49.3574 47.8379 49.3574 46.3965C49.3574 45.248 49.4043 43.7129 49.498 41.791C49.5918 39.8691 49.6855 38.3223 49.7793 37.1504C49.4746 36.8223 49.0996 36.6465 48.6543 36.623C48.2441 37.1504 47.6406 38.2051 46.8438 39.7871C46.0469 41.3691 45.4844 42.5527 45.1562 43.3379C45.1328 43.502 45.1211 43.6602 45.1211 43.8125C45.1211 44.3984 45.209 45.1895 45.3848 46.1855C45.5605 47.1699 45.7773 48.0898 46.0352 48.9453C45.8242 49.3438 45.3906 49.6777 44.7344 49.9473C44.0781 50.2168 43.2695 50.3516 42.3086 50.3516C41.4414 50.3516 40.7441 50.2812 40.2168 50.1406C39.7012 50 39.3379 49.8535 39.127 49.7012C38.916 49.5371 38.8105 49.4375 38.8105 49.4023C38.7988 49.2969 38.7695 49.0215 38.7227 48.5762C38.6758 48.1191 38.6289 47.4863 38.582 46.6777C38.5352 45.8574 38.5117 44.9258 38.5117 43.8828L38.4941 38.5742ZM60.2734 39.6113C60.2734 37.4902 60.6133 35.6504 61.293 34.0918C61.9727 32.5332 63.0156 31.3262 64.4219 30.4707C65.8281 29.6035 67.5918 29.1699 69.7129 29.1699C72.0566 29.1699 73.8965 29.6094 75.2324 30.4883C76.5684 31.3555 77.5 32.5625 78.0273 34.1094C78.5664 35.6562 78.8359 37.5488 78.8359 39.7871C78.8359 41.8145 78.4785 43.625 77.7637 45.2188C77.0605 46.8008 75.9941 48.0547 74.5645 48.9805C73.1465 49.8945 71.4062 50.3516 69.3438 50.3516C66.1562 50.3516 63.8477 49.373 62.418 47.416C60.9883 45.4473 60.2734 42.8457 60.2734 39.6113ZM70.0645 45.2012C70.6621 45.2012 71.0254 45.1543 71.1543 45.0605C71.4238 44.5918 71.6289 43.9297 71.7695 43.0742C71.9102 42.2188 71.9805 41.293 71.9805 40.2969C71.9805 39.3828 71.9219 38.5273 71.8047 37.7305C71.6875 36.9219 71.5234 36.2891 71.3125 35.832C71.1836 35.6797 70.9258 35.5684 70.5391 35.498C70.1523 35.416 69.7305 35.375 69.2734 35.375C68.6758 35.375 68.2656 35.4395 68.043 35.5684C67.457 36.5762 67.1641 37.9766 67.1641 39.7695C67.1641 40.6133 67.2285 41.4746 67.3574 42.3535C67.4863 43.2324 67.6504 44.0293 67.8496 44.7441C67.9902 44.8965 68.2773 45.0137 68.7109 45.0957C69.1445 45.166 69.5957 45.2012 70.0645 45.2012ZM82.8613 43.8828C82.8613 41.9727 82.8848 40.5312 82.9316 39.5586C82.9785 38.5742 83.1016 37.1328 83.3008 35.2344L81.2793 34.9707C81.0332 34.209 80.8691 33.5293 80.7871 32.9316C80.7168 32.334 80.6816 31.5605 80.6816 30.6113C80.8691 30.4473 81.1797 30.2539 81.6133 30.0312C82.0586 29.7969 82.5801 29.5977 83.1777 29.4336C83.7871 29.2578 84.4023 29.1699 85.0234 29.1699C86.4414 29.1699 87.4434 29.4746 88.0293 30.084C88.627 30.6934 88.9258 31.6074 88.9258 32.8262C88.9258 33.5059 88.8262 34.4258 88.627 35.5859C88.2988 37.4492 88.1348 38.4277 88.1348 38.5215C88.1348 38.5801 88.1758 38.6387 88.2578 38.6973C88.3398 38.7441 88.4277 38.7676 88.5215 38.7676C88.627 38.7676 88.6973 38.7266 88.7324 38.6445C88.7207 38.6914 88.8555 38.0996 89.1367 36.8691C89.4766 35.252 89.8223 33.9336 90.1738 32.9141C90.5371 31.8945 91.1113 31.0215 91.8965 30.2949C92.6816 29.5684 93.748 29.2051 95.0957 29.2051C96.7598 29.2051 97.9609 29.6855 98.6992 30.6465C99.4375 31.5957 99.8066 32.8613 99.8066 34.4434C99.8066 35.6973 99.5957 37.0918 99.1738 38.627C99.1738 38.6855 99.2148 38.7441 99.2969 38.8027C99.3789 38.8496 99.4668 38.873 99.5605 38.873C99.666 38.873 99.7363 38.832 99.7715 38.75L100.018 37.7656C100.439 36.0312 100.855 34.5898 101.266 33.4414C101.688 32.293 102.314 31.3027 103.146 30.4707C103.99 29.627 105.086 29.2051 106.434 29.2051C108.203 29.2051 109.475 29.7734 110.248 30.9102C111.033 32.0469 111.426 33.4766 111.426 35.1992C111.426 36.418 111.309 37.6426 111.074 38.873C110.852 40.1035 110.611 41.1348 110.354 41.9668C110.107 42.7988 109.803 43.7598 109.439 44.8496L109.475 44.8848L112.076 43.7949C112.99 44.5801 113.523 45.623 113.676 46.9238C113.676 47.0059 113.412 47.3457 112.885 47.9434C112.357 48.5293 111.66 49.0801 110.793 49.5957C109.938 50.0996 108.953 50.3516 107.84 50.3516C106.727 50.3516 105.818 50.0527 105.115 49.4551C104.412 48.8574 104.061 47.8379 104.061 46.3965C104.061 44.791 104.09 43.1445 104.148 41.457C104.219 39.7578 104.318 38.2344 104.447 36.8867C104.248 36.7227 103.973 36.6348 103.621 36.623C103.27 36.9629 102.83 37.707 102.303 38.8555C101.775 39.9922 101.289 41.2109 100.844 42.5117C100.398 43.8008 100.117 44.8086 100 45.5352C100.164 46.6836 100.416 47.8203 100.756 48.9453C100.545 49.3438 100.111 49.6777 99.4551 49.9473C98.7988 50.2168 97.9902 50.3516 97.0293 50.3516C96.1621 50.3516 95.4824 50.2812 94.9902 50.1406C94.498 50 94.1582 49.8535 93.9707 49.7012C93.7949 49.5488 93.707 49.4492 93.707 49.4023C93.6953 49.2969 93.666 49.0215 93.6191 48.5762C93.5723 48.1191 93.5254 47.4863 93.4785 46.6777C93.4316 45.8574 93.4082 44.9258 93.4082 43.8828C93.4082 42.8867 93.4844 41.6387 93.6367 40.1387C93.6484 39.9512 93.6836 39.5059 93.7422 38.8027C93.8008 38.0996 93.8301 37.4609 93.8301 36.8867C93.6309 36.7227 93.3555 36.6348 93.0039 36.623C92.8047 36.7754 92.248 37.748 91.334 39.541C90.4199 41.334 89.8105 42.5996 89.5059 43.3379C89.4824 43.502 89.4707 43.6602 89.4707 43.8125C89.4707 44.3984 89.5586 45.1895 89.7344 46.1855C89.9102 47.1699 90.127 48.0898 90.3848 48.9453C90.1738 49.3438 89.7402 49.6777 89.084 49.9473C88.4277 50.2168 87.6191 50.3516 86.6582 50.3516C85.791 50.3516 85.0938 50.2812 84.5664 50.1406C84.0508 50 83.6875 49.8535 83.4766 49.7012C83.2656 49.5371 83.1602 49.4375 83.1602 49.4023C83.1484 49.2969 83.1191 49.0215 83.0723 48.5762C83.0254 48.1191 82.9785 47.4863 82.9316 46.6777C82.8848 45.8574 82.8613 44.9258 82.8613 43.8828ZM116.471 43.8828C116.471 41.9727 116.494 40.5312 116.541 39.5586C116.588 38.5742 116.711 37.1328 116.91 35.2344L114.889 34.9707C114.643 34.209 114.479 33.5293 114.396 32.9316C114.326 32.334 114.291 31.5605 114.291 30.6113C114.479 30.4473 114.789 30.2539 115.223 30.0312C115.668 29.7969 116.189 29.5977 116.787 29.4336C117.396 29.2578 118.012 29.1699 118.633 29.1699C120.051 29.1699 121.053 29.4746 121.639 30.084C122.236 30.6934 122.535 31.6074 122.535 32.8262C122.535 33.5059 122.436 34.4258 122.236 35.5859C121.908 37.4492 121.744 38.4277 121.744 38.5215C121.744 38.5801 121.785 38.6387 121.867 38.6973C121.949 38.7441 122.037 38.7676 122.131 38.7676C122.236 38.7676 122.307 38.7266 122.342 38.6445C122.33 38.6914 122.465 38.0996 122.746 36.8691C123.086 35.252 123.432 33.9336 123.783 32.9141C124.146 31.8945 124.721 31.0215 125.506 30.2949C126.291 29.5684 127.357 29.2051 128.705 29.2051C130.369 29.2051 131.57 29.6855 132.309 30.6465C133.047 31.5957 133.416 32.8613 133.416 34.4434C133.416 35.6973 133.205 37.0918 132.783 38.627C132.783 38.6855 132.824 38.7441 132.906 38.8027C132.988 38.8496 133.076 38.873 133.17 38.873C133.275 38.873 133.346 38.832 133.381 38.75L133.627 37.7656C134.049 36.0312 134.465 34.5898 134.875 33.4414C135.297 32.293 135.924 31.3027 136.756 30.4707C137.6 29.627 138.695 29.2051 140.043 29.2051C141.812 29.2051 143.084 29.7734 143.857 30.9102C144.643 32.0469 145.035 33.4766 145.035 35.1992C145.035 36.418 144.918 37.6426 144.684 38.873C144.461 40.1035 144.221 41.1348 143.963 41.9668C143.717 42.7988 143.412 43.7598 143.049 44.8496L143.084 44.8848L145.686 43.7949C146.6 44.5801 147.133 45.623 147.285 46.9238C147.285 47.0059 147.021 47.3457 146.494 47.9434C145.967 48.5293 145.27 49.0801 144.402 49.5957C143.547 50.0996 142.562 50.3516 141.449 50.3516C140.336 50.3516 139.428 50.0527 138.725 49.4551C138.021 48.8574 137.67 47.8379 137.67 46.3965C137.67 44.791 137.699 43.1445 137.758 41.457C137.828 39.7578 137.928 38.2344 138.057 36.8867C137.857 36.7227 137.582 36.6348 137.23 36.623C136.879 36.9629 136.439 37.707 135.912 38.8555C135.385 39.9922 134.898 41.2109 134.453 42.5117C134.008 43.8008 133.727 44.8086 133.609 45.5352C133.773 46.6836 134.025 47.8203 134.365 48.9453C134.154 49.3438 133.721 49.6777 133.064 49.9473C132.408 50.2168 131.6 50.3516 130.639 50.3516C129.771 50.3516 129.092 50.2812 128.6 50.1406C128.107 50 127.768 49.8535 127.58 49.7012C127.404 49.5488 127.316 49.4492 127.316 49.4023C127.305 49.2969 127.275 49.0215 127.229 48.5762C127.182 48.1191 127.135 47.4863 127.088 46.6777C127.041 45.8574 127.018 44.9258 127.018 43.8828C127.018 42.8867 127.094 41.6387 127.246 40.1387C127.258 39.9512 127.293 39.5059 127.352 38.8027C127.41 38.0996 127.439 37.4609 127.439 36.8867C127.24 36.7227 126.965 36.6348 126.613 36.623C126.414 36.7754 125.857 37.748 124.943 39.541C124.029 41.334 123.42 42.5996 123.115 43.3379C123.092 43.502 123.08 43.6602 123.08 43.8125C123.08 44.3984 123.168 45.1895 123.344 46.1855C123.52 47.1699 123.736 48.0898 123.994 48.9453C123.783 49.3438 123.35 49.6777 122.693 49.9473C122.037 50.2168 121.229 50.3516 120.268 50.3516C119.4 50.3516 118.703 50.2812 118.176 50.1406C117.66 50 117.297 49.8535 117.086 49.7012C116.875 49.5371 116.77 49.4375 116.77 49.4023C116.758 49.2969 116.729 49.0215 116.682 48.5762C116.635 48.1191 116.588 47.4863 116.541 46.6777C116.494 45.8574 116.471 44.9258 116.471 43.8828ZM148.41 39.7871C148.41 37.7598 148.75 35.9492 149.43 34.3555C150.109 32.7617 151.158 31.502 152.576 30.5762C154.006 29.6387 155.787 29.1699 157.92 29.1699C159.033 29.1699 160.146 29.3047 161.26 29.5742C162.373 29.832 163.316 30.2656 164.09 30.875C164.805 31.4492 165.32 32.2109 165.637 33.1602C165.965 34.0977 166.129 35.1406 166.129 36.2891C166.129 37.0508 166.064 37.8301 165.936 38.627C165.795 38.8613 165.52 39.1719 165.109 39.5586C164.699 39.9336 164.219 40.3027 163.668 40.666C163.117 41.0293 162.584 41.3105 162.068 41.5098C161.576 41.5449 161.066 41.5625 160.539 41.5625C159.613 41.5625 158.676 41.5215 157.727 41.4395C156.777 41.3574 155.945 41.2637 155.23 41.1582C155.324 42.1543 155.629 43.0215 156.145 43.7598C156.66 44.498 157.48 44.8672 158.605 44.8672C158.711 44.8672 158.881 44.8555 159.115 44.832C159.83 44.7617 160.662 44.5742 161.611 44.2695C162.572 43.9531 163.527 43.5898 164.477 43.1797C164.922 43.625 165.25 44.0703 165.461 44.5156C165.672 44.9609 165.818 45.5996 165.9 46.4316C165.537 46.8535 164.945 47.3691 164.125 47.9785C163.316 48.5879 162.326 49.1387 161.154 49.6309C159.982 50.1113 158.758 50.3516 157.48 50.3516C155.559 50.3516 153.912 49.8887 152.541 48.9629C151.182 48.0254 150.15 46.7598 149.447 45.166C148.756 43.5605 148.41 41.7676 148.41 39.7871ZM159.73 35.7441C159.566 35.5684 159.291 35.4336 158.904 35.3398C158.518 35.2344 158.113 35.1816 157.691 35.1816C157.352 35.1816 157.006 35.2109 156.654 35.2695C156.314 35.3281 156.109 35.3926 156.039 35.4629C155.641 36.248 155.389 37.1387 155.283 38.1348L159.977 37.6777L159.73 35.7441ZM170.137 43.7949C171.168 44.2051 171.994 44.5215 172.615 44.7441C173.236 44.9668 173.916 45.1602 174.654 45.3242C175.404 45.4883 176.148 45.5703 176.887 45.5703C177.215 45.5703 177.449 45.541 177.59 45.4824C177.625 45.4355 177.654 45.3652 177.678 45.2715C177.713 45.166 177.73 45.0605 177.73 44.9551C177.73 44.7207 177.596 44.5273 177.326 44.375C176.904 44.1406 176.154 43.7715 175.076 43.2676C173.6 42.5645 172.428 41.9375 171.561 41.3867C170.705 40.8359 169.979 40.1035 169.381 39.1895C168.795 38.2754 168.502 37.127 168.502 35.7441C168.502 33.7637 169.094 32.1758 170.277 30.9805C171.461 29.7734 173.336 29.1699 175.902 29.1699C178.961 29.1699 181.34 29.5684 183.039 30.3652C183.121 30.7051 183.162 31.1328 183.162 31.6484C183.162 32.6328 183.01 33.6406 182.705 34.6719C182.4 35.6914 182.002 36.4473 181.51 36.9395C180.842 36.7168 179.898 36.3594 178.68 35.8672C177.789 35.5156 177.08 35.2461 176.553 35.0586C176.037 34.8594 175.562 34.7188 175.129 34.6367C174.895 34.6953 174.707 34.8359 174.566 35.0586C174.426 35.2695 174.355 35.5215 174.355 35.8145C174.355 36.0723 174.432 36.2891 174.584 36.4648C174.736 36.6406 174.906 36.7812 175.094 36.8867C175.293 36.9805 175.574 37.1094 175.938 37.2734C176.125 37.3555 176.301 37.4316 176.465 37.502C176.629 37.5605 176.781 37.6191 176.922 37.6777C177.836 38.0645 178.557 38.3809 179.084 38.627C179.611 38.873 180.121 39.166 180.613 39.5059C181.516 40.127 182.225 40.8359 182.74 41.6328C183.256 42.4297 183.514 43.3027 183.514 44.252C183.514 45.5645 183.139 46.7012 182.389 47.6621C181.65 48.6113 180.701 49.3027 179.541 49.7363C178.932 49.959 178.264 50.1172 177.537 50.2109C176.822 50.3164 175.984 50.3691 175.023 50.3691C173.887 50.3691 172.715 50.1523 171.508 49.7188C170.312 49.2734 169.398 48.5352 168.766 47.5039C168.777 46.7891 168.871 46.168 169.047 45.6406C169.234 45.1016 169.598 44.4863 170.137 43.7949ZM187.152 43.7949C188.184 44.2051 189.01 44.5215 189.631 44.7441C190.252 44.9668 190.932 45.1602 191.67 45.3242C192.42 45.4883 193.164 45.5703 193.902 45.5703C194.23 45.5703 194.465 45.541 194.605 45.4824C194.641 45.4355 194.67 45.3652 194.693 45.2715C194.729 45.166 194.746 45.0605 194.746 44.9551C194.746 44.7207 194.611 44.5273 194.342 44.375C193.92 44.1406 193.17 43.7715 192.092 43.2676C190.615 42.5645 189.443 41.9375 188.576 41.3867C187.721 40.8359 186.994 40.1035 186.396 39.1895C185.811 38.2754 185.518 37.127 185.518 35.7441C185.518 33.7637 186.109 32.1758 187.293 30.9805C188.477 29.7734 190.352 29.1699 192.918 29.1699C195.977 29.1699 198.355 29.5684 200.055 30.3652C200.137 30.7051 200.178 31.1328 200.178 31.6484C200.178 32.6328 200.025 33.6406 199.721 34.6719C199.416 35.6914 199.018 36.4473 198.525 36.9395C197.857 36.7168 196.914 36.3594 195.695 35.8672C194.805 35.5156 194.096 35.2461 193.568 35.0586C193.053 34.8594 192.578 34.7188 192.145 34.6367C191.91 34.6953 191.723 34.8359 191.582 35.0586C191.441 35.2695 191.371 35.5215 191.371 35.8145C191.371 36.0723 191.447 36.2891 191.6 36.4648C191.752 36.6406 191.922 36.7812 192.109 36.8867C192.309 36.9805 192.59 37.1094 192.953 37.2734C193.141 37.3555 193.316 37.4316 193.48 37.502C193.645 37.5605 193.797 37.6191 193.938 37.6777C194.852 38.0645 195.572 38.3809 196.1 38.627C196.627 38.873 197.137 39.166 197.629 39.5059C198.531 40.127 199.24 40.8359 199.756 41.6328C200.271 42.4297 200.529 43.3027 200.529 44.252C200.529 45.5645 200.154 46.7012 199.404 47.6621C198.666 48.6113 197.717 49.3027 196.557 49.7363C195.947 49.959 195.279 50.1172 194.553 50.2109C193.838 50.3164 193 50.3691 192.039 50.3691C190.902 50.3691 189.73 50.1523 188.523 49.7188C187.328 49.2734 186.414 48.5352 185.781 47.5039C185.793 46.7891 185.887 46.168 186.062 45.6406C186.25 45.1016 186.613 44.4863 187.152 43.7949ZM202.48 39.7871C202.48 37.7598 202.82 35.9492 203.5 34.3555C204.18 32.7617 205.229 31.502 206.646 30.5762C208.076 29.6387 209.857 29.1699 211.99 29.1699C213.104 29.1699 214.217 29.3047 215.33 29.5742C216.443 29.832 217.387 30.2656 218.16 30.875C218.875 31.4492 219.391 32.2109 219.707 33.1602C220.035 34.0977 220.199 35.1406 220.199 36.2891C220.199 37.0508 220.135 37.8301 220.006 38.627C219.865 38.8613 219.59 39.1719 219.18 39.5586C218.77 39.9336 218.289 40.3027 217.738 40.666C217.188 41.0293 216.654 41.3105 216.139 41.5098C215.646 41.5449 215.137 41.5625 214.609 41.5625C213.684 41.5625 212.746 41.5215 211.797 41.4395C210.848 41.3574 210.016 41.2637 209.301 41.1582C209.395 42.1543 209.699 43.0215 210.215 43.7598C210.73 44.498 211.551 44.8672 212.676 44.8672C212.781 44.8672 212.951 44.8555 213.186 44.832C213.9 44.7617 214.732 44.5742 215.682 44.2695C216.643 43.9531 217.598 43.5898 218.547 43.1797C218.992 43.625 219.32 44.0703 219.531 44.5156C219.742 44.9609 219.889 45.5996 219.971 46.4316C219.607 46.8535 219.016 47.3691 218.195 47.9785C217.387 48.5879 216.396 49.1387 215.225 49.6309C214.053 50.1113 212.828 50.3516 211.551 50.3516C209.629 50.3516 207.982 49.8887 206.611 48.9629C205.252 48.0254 204.221 46.7598 203.518 45.166C202.826 43.5605 202.48 41.7676 202.48 39.7871ZM213.801 35.7441C213.637 35.5684 213.361 35.4336 212.975 35.3398C212.588 35.2344 212.184 35.1816 211.762 35.1816C211.422 35.1816 211.076 35.2109 210.725 35.2695C210.385 35.3281 210.18 35.3926 210.109 35.4629C209.711 36.248 209.459 37.1387 209.354 38.1348L214.047 37.6777L213.801 35.7441ZM224.207 43.8828C224.207 41.9727 224.23 40.5312 224.277 39.5586C224.324 38.5742 224.447 37.1328 224.646 35.2344L222.607 34.9707C222.361 34.209 222.197 33.5293 222.115 32.9316C222.045 32.334 222.01 31.5605 222.01 30.6113C222.197 30.4473 222.508 30.2539 222.941 30.0312C223.387 29.7969 223.914 29.5977 224.523 29.4336C225.133 29.2578 225.748 29.1699 226.369 29.1699C227.787 29.1699 228.789 29.4746 229.375 30.084C229.973 30.6934 230.271 31.6074 230.271 32.8262C230.271 33.5059 230.172 34.4258 229.973 35.5859C229.645 37.4492 229.48 38.4277 229.48 38.5215C229.48 38.5801 229.521 38.6387 229.604 38.6973C229.686 38.7441 229.773 38.7676 229.867 38.7676C229.973 38.7676 230.043 38.7266 230.078 38.6445C230.547 36.7812 231.016 35.2227 231.484 33.9688C231.953 32.7148 232.662 31.6016 233.611 30.6289C234.561 29.6562 235.791 29.1699 237.303 29.1699C239.178 29.1699 240.525 29.7441 241.346 30.8926C242.166 32.0293 242.576 33.4648 242.576 35.1992C242.576 36.7461 242.395 38.2402 242.031 39.6816C241.668 41.1113 241.217 42.6055 240.678 44.1641C240.701 44.1055 240.619 44.334 240.432 44.8496L240.467 44.8848L243.033 43.8301C243.947 44.6152 244.48 45.6582 244.633 46.959C244.633 47.041 244.369 47.375 243.842 47.9609C243.326 48.5469 242.641 49.0918 241.785 49.5957C240.93 50.0996 239.945 50.3516 238.832 50.3516C237.719 50.3516 236.811 50.0527 236.107 49.4551C235.404 48.8574 235.053 47.8379 235.053 46.3965C235.053 45.248 235.1 43.7129 235.193 41.791C235.287 39.8691 235.381 38.3223 235.475 37.1504C235.17 36.8223 234.795 36.6465 234.35 36.623C233.939 37.1504 233.336 38.2051 232.539 39.7871C231.742 41.3691 231.18 42.5527 230.852 43.3379C230.828 43.502 230.816 43.6602 230.816 43.8125C230.816 44.3984 230.904 45.1895 231.08 46.1855C231.256 47.1699 231.473 48.0898 231.73 48.9453C231.52 49.3438 231.086 49.6777 230.43 49.9473C229.773 50.2168 228.965 50.3516 228.004 50.3516C227.137 50.3516 226.439 50.2812 225.912 50.1406C225.396 50 225.033 49.8535 224.822 49.7012C224.611 49.5371 224.506 49.4375 224.506 49.4023C224.494 49.2969 224.465 49.0215 224.418 48.5762C224.371 48.1191 224.324 47.4863 224.277 46.6777C224.23 45.8574 224.207 44.9258 224.207 43.8828ZM258.467 36.4473C257.869 36.0723 257.277 35.5801 256.691 34.9707C256.105 34.3613 255.613 33.6582 255.215 32.8613C254.828 32.0645 254.635 31.2324 254.635 30.3652C254.635 28.6309 255.021 27.1953 255.795 26.0586C256.568 24.9219 257.605 24.084 258.906 23.5449C260.219 23.0059 261.689 22.7363 263.318 22.7363C267.127 22.7363 269.553 23.3574 270.596 24.5996C270.654 24.9746 270.684 25.2969 270.684 25.5664C270.684 26.8438 270.221 28.1387 269.295 29.4512C268.24 28.959 267.145 28.6016 266.008 28.3789C264.871 28.1562 264.016 28.0449 263.441 28.0449C263.031 28.0449 262.633 28.0859 262.246 28.168C261.871 28.2383 261.537 28.3438 261.244 28.4844C261.127 28.6484 261.039 28.9238 260.98 29.3105C260.922 29.6973 260.893 30.0605 260.893 30.4004C261.35 31.2793 262.422 32.2344 264.109 33.2656L264.268 33.1602C264.854 32.7852 265.797 32.2988 267.098 31.7012C268.398 31.1035 269.676 30.582 270.93 30.1367C272.195 29.6797 273.127 29.4512 273.725 29.4512C274.123 29.4512 274.545 29.5273 274.99 29.6797C275.436 29.8203 275.822 30.002 276.15 30.2246C276.49 30.4355 276.701 30.623 276.783 30.7871C276.982 31.1973 277.082 31.748 277.082 32.4395C277.082 33.1895 276.971 33.998 276.748 34.8652C276.537 35.7324 276.273 36.4941 275.957 37.1504C275.641 37.8066 275.336 38.1992 275.043 38.3281H272.371L271.967 35.041C271.439 35.0293 270.883 35.0938 270.297 35.2344C269.711 35.3633 269.014 35.5566 268.205 35.8145C269.811 36.9629 270.941 38.0586 271.598 39.1016C272.266 40.1328 272.6 41.2109 272.6 42.3359C272.6 43.9297 272.207 45.3301 271.422 46.5371C270.648 47.7441 269.559 48.6816 268.152 49.3496C266.758 50.0059 265.164 50.334 263.371 50.334C261.707 50.334 260.154 50.0352 258.713 49.4375C257.283 48.8398 256.129 47.9668 255.25 46.8184C254.383 45.6582 253.949 44.2754 253.949 42.6699C253.949 41.6387 254.16 40.7422 254.582 39.9805C255.004 39.2188 255.52 38.5859 256.129 38.082C256.738 37.5781 257.518 37.0332 258.467 36.4473ZM263.354 45.7637C264.49 45.7637 265.375 45.5117 266.008 45.0078C266.113 44.8086 266.195 44.4219 266.254 43.8477C266.312 43.2734 266.342 42.8047 266.342 42.4414C265.896 41.8086 265.328 41.1992 264.637 40.6133C263.945 40.0156 263.131 39.4941 262.193 39.0488C261.584 39.4238 261.01 39.8926 260.471 40.4551C259.943 41.0059 259.58 41.5742 259.381 42.1602C259.428 42.7578 259.598 43.373 259.891 44.0059C260.195 44.6387 260.559 45.1016 260.98 45.3945C261.719 45.6406 262.51 45.7637 263.354 45.7637ZM288.578 36.9922C288.578 33.4531 288.631 30.7344 288.736 28.8359H288.719L286.205 28.4668C286.053 28.0332 285.936 27.5527 285.854 27.0254C285.771 26.498 285.73 25.9883 285.73 25.4961C285.73 25.1211 285.76 24.7109 285.818 24.2656C287.26 23.75 289.246 23.3691 291.777 23.123C294.309 22.877 296.746 22.7539 299.09 22.7539C300.883 22.7539 302.424 22.8945 303.713 23.1758C305.002 23.457 306.08 24.0957 306.947 25.0918C307.826 26.0762 308.266 27.5527 308.266 29.5215C308.266 30.5059 308.055 31.6543 307.633 32.9668C307.223 34.2676 306.695 35.5391 306.051 36.7812C305.418 38.0117 304.779 39.0078 304.135 39.7695C303.186 40.9062 302.131 41.5742 300.971 41.7734C299.049 42.0781 297.016 42.2305 294.871 42.2305C294.824 43.4375 294.807 44.3047 294.818 44.832L297.438 44.6562C297.977 45.5352 298.275 46.5781 298.334 47.7852C298.334 47.8438 298.07 48.0957 297.543 48.541C297.016 48.9863 296.318 49.3965 295.451 49.7715C294.596 50.1465 293.611 50.334 292.498 50.334C291.396 50.334 290.518 50.0352 289.861 49.4375C289.217 48.8281 288.895 47.7793 288.895 46.291C288.695 43.8535 288.596 40.7598 288.596 37.0098L288.578 36.9922ZM299.705 37.291C300.01 36.002 300.262 34.6367 300.461 33.1953C300.672 31.7422 300.789 30.4766 300.812 29.3984C300.754 29.293 300.455 29.1992 299.916 29.1172C299.377 29.0352 298.68 28.9941 297.824 28.9941C297.227 28.9941 296.482 29.0176 295.592 29.0645C295.486 32.6035 295.346 35.4453 295.17 37.5898L299.705 37.291ZM315.191 38.416C315.883 38.416 316.645 38.4863 317.477 38.627C318.32 38.7676 319.094 38.9375 319.797 39.1367V38.5918C319.797 38.2285 319.785 37.8242 319.762 37.3789C319.75 36.9336 319.727 36.6406 319.691 36.5C319.586 36.3008 319.281 36.0957 318.777 35.8848C318.285 35.6738 317.477 35.5684 316.352 35.5684C315.66 35.5684 314.945 35.6562 314.207 35.832C313.48 35.9961 312.672 36.2188 311.781 36.5C311.301 35.7031 310.914 34.9473 310.621 34.2324C310.34 33.5059 310.199 32.7793 310.199 32.0527C310.199 31.8301 310.217 31.6074 310.252 31.3848C312.15 29.9082 314.605 29.1699 317.617 29.1699C319.281 29.1699 320.758 29.3574 322.047 29.7324C323.336 30.1074 324.396 30.834 325.229 31.9121C326.061 32.9902 326.477 34.5195 326.477 36.5C326.477 38.4336 326.248 40.3086 325.791 42.125C325.346 43.9297 325.117 44.8496 325.105 44.8848L327.654 43.7949C327.994 44.1582 328.293 44.6035 328.551 45.1309C328.82 45.6465 328.99 46.2441 329.061 46.9238C328.896 47.2754 328.539 47.7266 327.988 48.2773C327.438 48.8164 326.764 49.2969 325.967 49.7188C325.17 50.1406 324.338 50.3516 323.471 50.3516C322.498 50.3516 321.76 50.0645 321.256 49.4902C320.764 48.916 320.518 48.1719 320.518 47.2578C320.518 46.7422 320.594 46.2207 320.746 45.6934L320.219 45.5352C319.891 47.3867 319.193 48.6523 318.127 49.332C317.061 50.0117 315.883 50.3516 314.594 50.3516C313.75 50.3516 312.936 50.1172 312.15 49.6484C311.365 49.168 310.727 48.4766 310.234 47.5742C309.742 46.6602 309.496 45.5938 309.496 44.375C309.496 42.4297 309.982 40.9531 310.955 39.9453C311.928 38.9258 313.34 38.416 315.191 38.416ZM317.195 45.1133C317.488 45.0547 317.834 44.8906 318.232 44.6211C318.643 44.3516 319.006 44.0293 319.322 43.6543C319.639 43.2793 319.826 42.9219 319.885 42.582L319.779 42.1602C319.158 42.0781 318.496 42.0371 317.793 42.0371C317.195 42.0371 316.785 42.084 316.562 42.1777C316.188 42.5996 316 43.0684 316 43.584C316 43.959 316.094 44.2988 316.281 44.6035C316.48 44.9082 316.785 45.0781 317.195 45.1133ZM329.764 34.8477C329.564 33.9922 329.436 33.3652 329.377 32.9668C329.318 32.5684 329.289 31.9648 329.289 31.1562C329.98 30.5 330.725 30.0078 331.521 29.6797C332.318 29.3398 333.215 29.1699 334.211 29.1699C337.234 29.1699 338.746 30.6875 338.746 33.7227C338.746 34.5312 338.67 35.4688 338.518 36.5352C338.377 37.6016 338.172 38.9434 337.902 40.5605C337.867 40.7715 337.773 41.3398 337.621 42.2656C337.469 43.1914 337.363 43.9648 337.305 44.5859C337.504 44.7969 337.75 44.9434 338.043 45.0254C338.184 45.0254 338.506 44.7383 339.01 44.1641C339.525 43.5781 340.076 42.8691 340.662 42.0371C341.248 41.2051 341.729 40.4375 342.104 39.7344C342.197 38.0586 342.326 36.5176 342.49 35.1113L340.645 34.7422C340.492 34.1562 340.387 33.6406 340.328 33.1953C340.27 32.75 340.24 32.2754 340.24 31.7715L340.258 31.2793C340.68 30.7402 341.312 30.2539 342.156 29.8203C343 29.3867 343.967 29.1699 345.057 29.1699C348.08 29.1699 349.592 30.6875 349.592 33.7227C349.592 34.9531 349.387 36.5762 348.977 38.5918C348.566 40.5957 348.086 42.623 347.535 44.6738L349.557 43.7949C349.896 44.1582 350.195 44.6035 350.453 45.1309C350.723 45.6465 350.893 46.2441 350.963 46.9238C350.799 47.2754 350.441 47.7266 349.891 48.2773C349.34 48.8164 348.666 49.2969 347.869 49.7188C347.072 50.1406 346.24 50.3516 345.373 50.3516C344.4 50.3516 343.65 50.0645 343.123 49.4902C342.607 48.9043 342.35 48.1602 342.35 47.2578C342.35 47.0234 342.408 46.543 342.525 45.8164C342.654 45.0898 342.76 44.5859 342.842 44.3047L342.35 44.1465C341.764 46.1973 340.955 47.7441 339.924 48.7871C338.904 49.8301 337.738 50.3516 336.426 50.3516C334.539 50.3516 333.209 49.7305 332.436 48.4883C331.662 47.2344 331.275 45.6816 331.275 43.8301C331.275 40.3496 331.393 37.4434 331.627 35.1113L329.764 34.8477ZM351.965 27.0078C351.789 26.293 351.672 25.7012 351.613 25.2324C351.555 24.752 351.531 24.2012 351.543 23.5801C351.789 23.2637 352.17 22.9473 352.686 22.6309C353.213 22.3027 353.822 22.0273 354.514 21.8047C355.217 21.582 355.943 21.4707 356.693 21.4707C358.158 21.4707 359.283 21.8398 360.068 22.5781C360.854 23.3164 361.246 24.4062 361.246 25.8477C361.246 26.8789 361.158 28.5371 360.982 30.8223C360.807 33.1074 360.555 35.5391 360.227 38.1172C359.898 40.6836 359.523 42.9277 359.102 44.8496L359.137 44.8848L361.738 43.7949C362.652 44.5801 363.186 45.623 363.338 46.9238C363.338 47.0059 363.074 47.3457 362.547 47.9434C362.02 48.5293 361.322 49.0801 360.455 49.5957C359.6 50.0996 358.615 50.3516 357.502 50.3516C356.342 50.3516 355.398 50.0293 354.672 49.3848C353.957 48.7402 353.617 47.6387 353.652 46.0801L353.688 42.916C353.699 39.916 353.729 37.2148 353.775 34.8125C353.834 32.4102 353.951 29.9316 354.127 27.377L351.965 27.0078Z" fill="#9E101C"/>
<path d="M376.639 27.147C376.639 26.7026 376.729 26.2754 376.91 25.8652C376.993 25.8652 377.122 25.8823 377.298 25.9165C377.474 25.9458 377.659 25.9849 377.854 26.0337C377.83 24.9839 377.818 23.9585 377.818 22.9575C377.818 21.8784 377.837 20.958 377.876 20.1963H377.869L377.876 20.1084L376.683 19.9546C376.609 19.6567 376.561 19.4102 376.536 19.2148C376.512 19.0146 376.502 18.7852 376.507 18.5264C376.663 18.3506 376.893 18.1968 377.195 18.0649C377.503 17.9282 377.833 17.8257 378.184 17.7573C378.541 17.6841 378.865 17.6475 379.158 17.6475C379.72 17.6475 380.157 17.7598 380.469 17.9844C380.787 18.2041 380.967 18.5557 381.011 19.0391C381.026 19.2295 381.033 19.437 381.033 19.6616C381.033 20.4038 380.967 21.2827 380.835 22.2983C380.704 23.314 380.528 24.5005 380.308 25.8579L380.25 26.2388L382.117 26.3413L382.879 23.9097C383.108 23.8999 383.37 23.917 383.663 23.9609C383.96 24.0049 384.217 24.0659 384.432 24.144C384.52 24.3735 384.6 24.7397 384.673 25.2427C384.751 25.7407 384.791 26.229 384.791 26.7075C384.791 27.5034 384.673 28.0625 384.439 28.3848C384.322 28.541 384.158 28.6777 383.948 28.7949C383.743 28.9072 383.526 28.9927 383.296 29.0513C383.072 29.1147 382.869 29.1465 382.688 29.1465C382.4 29.1465 382.063 29.0854 381.678 28.9634C381.292 28.8364 380.914 28.6777 380.542 28.4873C380.171 28.292 379.866 28.0967 379.627 27.9014C379.407 28.2822 379.153 28.5776 378.865 28.7876C378.577 28.9976 378.218 29.1172 377.789 29.1465C377.579 29.1123 377.386 29.0024 377.21 28.8169C377.034 28.6313 376.895 28.3921 376.792 28.0991C376.69 27.8062 376.639 27.4888 376.639 27.147ZM385.032 27.147C385.032 26.7026 385.123 26.2754 385.303 25.8652C385.386 25.8652 385.516 25.8823 385.691 25.9165C385.867 25.9458 386.053 25.9849 386.248 26.0337C386.224 24.9839 386.211 23.9585 386.211 22.9575C386.211 21.8784 386.231 20.958 386.27 20.1963H386.263L386.27 20.1084L385.076 19.9546C385.003 19.6567 384.954 19.4102 384.93 19.2148C384.905 19.0146 384.896 18.7852 384.9 18.5264C385.057 18.3506 385.286 18.1968 385.589 18.0649C385.896 17.9282 386.226 17.8257 386.578 17.7573C386.934 17.6841 387.259 17.6475 387.552 17.6475C388.113 17.6475 388.55 17.7598 388.863 17.9844C389.18 18.2041 389.361 18.5557 389.405 19.0391C389.419 19.2295 389.427 19.437 389.427 19.6616C389.427 20.4038 389.361 21.2827 389.229 22.2983C389.097 23.314 388.921 24.5005 388.702 25.8579L388.643 26.2388L390.511 26.3413L391.272 23.9097C391.502 23.8999 391.763 23.917 392.056 23.9609C392.354 24.0049 392.61 24.0659 392.825 24.144C392.913 24.3735 392.994 24.7397 393.067 25.2427C393.145 25.7407 393.184 26.229 393.184 26.7075C393.184 27.5034 393.067 28.0625 392.833 28.3848C392.715 28.541 392.552 28.6777 392.342 28.7949C392.137 28.9072 391.919 28.9927 391.69 29.0513C391.465 29.1147 391.263 29.1465 391.082 29.1465C390.794 29.1465 390.457 29.0854 390.071 28.9634C389.686 28.8364 389.307 28.6777 388.936 28.4873C388.565 28.292 388.26 28.0967 388.021 27.9014C387.801 28.2822 387.547 28.5776 387.259 28.7876C386.971 28.9976 386.612 29.1172 386.182 29.1465C385.972 29.1123 385.779 29.0024 385.604 28.8169C385.428 28.6313 385.289 28.3921 385.186 28.0991C385.083 27.8062 385.032 27.4888 385.032 27.147ZM394.415 23.5801C394.415 22.1055 394.437 20.9727 394.48 20.1816H394.473L393.426 20.0278C393.362 19.8472 393.313 19.647 393.279 19.4272C393.245 19.2075 393.228 18.9951 393.228 18.79C393.228 18.6338 393.24 18.4629 393.265 18.2773C393.865 18.0625 394.693 17.9038 395.748 17.8013C396.802 17.6987 397.818 17.6475 398.794 17.6475C399.542 17.6475 400.184 17.7061 400.721 17.8232C401.258 17.9404 401.707 18.2065 402.068 18.6216C402.435 19.0317 402.618 19.647 402.618 20.4673C402.618 20.8774 402.53 21.356 402.354 21.9028C402.183 22.4448 401.963 22.9746 401.695 23.4922C401.431 24.0049 401.165 24.4199 400.896 24.7373C400.501 25.2109 400.062 25.4893 399.578 25.5723C398.777 25.6992 397.93 25.7627 397.037 25.7627C397.017 26.2656 397.01 26.627 397.015 26.8467L398.106 26.7734C398.331 27.1396 398.455 27.5742 398.479 28.0771C398.479 28.1016 398.37 28.2065 398.15 28.3921C397.93 28.5776 397.64 28.7485 397.278 28.9048C396.922 29.061 396.512 29.1392 396.048 29.1392C395.589 29.1392 395.223 29.0146 394.949 28.7656C394.681 28.5117 394.546 28.0747 394.546 27.4546C394.463 26.439 394.422 25.1499 394.422 23.5874L394.415 23.5801ZM399.051 23.7046C399.178 23.1675 399.283 22.5986 399.366 21.998C399.454 21.3926 399.502 20.8652 399.512 20.416C399.488 20.3721 399.363 20.333 399.139 20.2988C398.914 20.2646 398.624 20.2476 398.267 20.2476C398.018 20.2476 397.708 20.2573 397.337 20.2769C397.293 21.7515 397.234 22.9355 397.161 23.8291L399.051 23.7046Z" fill="#9E101C"/>
<path d="M68.6406 96.4922C68.9583 96.5964 69.2474 96.6797 69.5078 96.7422C70.013 94.7109 70.5885 92.3125 71.2344 89.5469L69.3516 89.3438C69.2318 89.0156 69.1719 88.6432 69.1719 88.2266C69.1719 87.9089 69.2083 87.599 69.2812 87.2969C70.0365 87.151 70.9062 87.0469 71.8906 86.9844C72.8802 86.9167 73.7292 86.8828 74.4375 86.8828C74.9479 86.8828 75.3307 86.8854 75.5859 86.8906L76.0781 87.1719C76.9531 89.5729 77.8411 92.8203 78.7422 96.9141C78.7526 96.9557 78.7708 97.0391 78.7969 97.1641C78.8281 97.2891 78.8516 97.4089 78.8672 97.5234C78.8828 97.6328 78.8906 97.737 78.8906 97.8359C78.8906 98.2734 78.7344 98.6276 78.4219 98.8984C77.9844 99.0703 77.4557 99.1562 76.8359 99.1562C76.5443 99.1562 76.25 99.125 75.9531 99.0625C75.6562 99 75.4557 98.9036 75.3516 98.7734L75.4453 96.7578L75.25 95.7109C74.9115 95.7318 74.513 95.7422 74.0547 95.7422C73.5651 95.7422 73.1068 95.7266 72.6797 95.6953L72.5859 96.1172C72.3828 97.0234 72.2161 97.6667 72.0859 98.0469C71.9609 98.4271 71.7734 98.7083 71.5234 98.8906C71.2786 99.0729 70.9115 99.1641 70.4219 99.1641C70.1042 99.1641 69.7839 99.1224 69.4609 99.0391C69.138 98.9609 68.8464 98.8542 68.5859 98.7188C68.3255 98.5833 68.1302 98.4375 68 98.2812C68 97.9062 68.0573 97.5495 68.1719 97.2109C68.2865 96.8724 68.4427 96.6328 68.6406 96.4922ZM74.1172 89.6172H73.7578L73.1953 93.4688H74.9453L74.1172 89.6172ZM81.4922 96.3438C81.8724 96.4948 82.1719 96.612 82.3906 96.6953C82.6094 96.7786 82.8385 96.8516 83.0781 96.9141C83.1458 96.7422 83.1797 96.5078 83.1797 96.2109C83.1797 95.8099 83.151 95.0755 83.0938 94.0078C83.0104 92.5807 82.9688 91.487 82.9688 90.7266C82.9688 90.2005 82.9844 89.7474 83.0156 89.3672L81.7266 89.2891L81.7031 91.75C81.3125 91.8802 80.8724 91.9453 80.3828 91.9453C80.2578 91.9453 80.1641 91.9427 80.1016 91.9375C79.9297 91.8021 79.75 91.5885 79.5625 91.2969C79.3802 91.0052 79.2292 90.6771 79.1094 90.3125C78.9896 89.9479 78.9297 89.5964 78.9297 89.2578C78.9297 88.6745 79.026 88.2292 79.2188 87.9219C79.4115 87.6146 79.6823 87.4036 80.0312 87.2891C80.3802 87.1693 80.8464 87.0911 81.4297 87.0547C82.3359 87.0026 83.401 86.9635 84.625 86.9375C85.8542 86.9062 87.0286 86.8906 88.1484 86.8906C88.2995 87.0833 88.4115 87.2995 88.4844 87.5391C88.5625 87.7786 88.6016 88.0182 88.6016 88.2578C88.6016 88.7057 88.487 89.0807 88.2578 89.3828C88.0286 89.6849 87.6901 89.8359 87.2422 89.8359C86.9505 89.8359 86.599 89.7839 86.1875 89.6797C86.0938 92.1276 85.9583 94.388 85.7812 96.4609C85.7448 96.862 85.6849 97.2161 85.6016 97.5234C85.5182 97.8307 85.3906 98.099 85.2188 98.3281C85.0052 98.6094 84.7109 98.8177 84.3359 98.9531C83.9609 99.0885 83.5469 99.1562 83.0938 99.1562C82.6667 99.1562 82.2448 99.0807 81.8281 98.9297C81.4167 98.7786 81.1068 98.5 80.8984 98.0938C80.9036 97.7552 80.9453 97.4557 81.0234 97.1953C81.1016 96.9297 81.2578 96.6458 81.4922 96.3438ZM90.3047 96.3438C90.6849 96.4948 90.9844 96.612 91.2031 96.6953C91.4219 96.7786 91.651 96.8516 91.8906 96.9141C91.9583 96.7422 91.9922 96.5078 91.9922 96.2109C91.9922 95.8099 91.9635 95.0755 91.9062 94.0078C91.8229 92.5807 91.7812 91.487 91.7812 90.7266C91.7812 90.2005 91.7969 89.7474 91.8281 89.3672L90.5391 89.2891L90.5156 91.75C90.125 91.8802 89.6849 91.9453 89.1953 91.9453C89.0703 91.9453 88.9766 91.9427 88.9141 91.9375C88.7422 91.8021 88.5625 91.5885 88.375 91.2969C88.1927 91.0052 88.0417 90.6771 87.9219 90.3125C87.8021 89.9479 87.7422 89.5964 87.7422 89.2578C87.7422 88.6745 87.8385 88.2292 88.0312 87.9219C88.224 87.6146 88.4948 87.4036 88.8438 87.2891C89.1927 87.1693 89.6589 87.0911 90.2422 87.0547C91.1484 87.0026 92.2135 86.9635 93.4375 86.9375C94.6667 86.9062 95.8411 86.8906 96.9609 86.8906C97.112 87.0833 97.224 87.2995 97.2969 87.5391C97.375 87.7786 97.4141 88.0182 97.4141 88.2578C97.4141 88.7057 97.2995 89.0807 97.0703 89.3828C96.8411 89.6849 96.5026 89.8359 96.0547 89.8359C95.763 89.8359 95.4115 89.7839 95 89.6797C94.9062 92.1276 94.7708 94.388 94.5938 96.4609C94.5573 96.862 94.4974 97.2161 94.4141 97.5234C94.3307 97.8307 94.2031 98.099 94.0312 98.3281C93.8177 98.6094 93.5234 98.8177 93.1484 98.9531C92.7734 99.0885 92.3594 99.1562 91.9062 99.1562C91.4792 99.1562 91.0573 99.0807 90.6406 98.9297C90.2292 98.7786 89.9193 98.5 89.7109 98.0938C89.7161 97.7552 89.7578 97.4557 89.8359 97.1953C89.9141 96.9297 90.0703 96.6458 90.3047 96.3438ZM97.2969 93.0938C97.2969 88.9583 98.9219 86.8906 102.172 86.8906C103.458 86.8906 104.461 87.1589 105.18 87.6953C105.904 88.2266 106.401 88.9453 106.672 89.8516C106.948 90.7526 107.086 91.8333 107.086 93.0938C107.086 94.9479 106.706 96.4219 105.945 97.5156C105.185 98.6094 103.927 99.1562 102.172 99.1562C100.406 99.1562 99.151 98.6146 98.4062 97.5312C97.6667 96.4479 97.2969 94.9688 97.2969 93.0938ZM102.562 96.6641C102.99 96.6641 103.234 96.6406 103.297 96.5938C103.427 96.3646 103.526 95.9661 103.594 95.3984C103.661 94.8255 103.695 94.1849 103.695 93.4766C103.695 92.7318 103.659 92.0417 103.586 91.4062C103.518 90.7656 103.422 90.3177 103.297 90.0625C103.167 89.9583 102.974 89.8802 102.719 89.8281C102.464 89.776 102.182 89.7474 101.875 89.7422C101.698 89.7422 101.536 89.7526 101.391 89.7734C101.25 89.7891 101.148 89.8151 101.086 89.8516C100.935 90.112 100.823 90.4896 100.75 90.9844C100.682 91.474 100.648 92.0339 100.648 92.6641C100.648 93.3776 100.688 94.0885 100.766 94.7969C100.844 95.5052 100.94 96.0469 101.055 96.4219C101.128 96.5 101.312 96.5599 101.609 96.6016C101.906 96.6432 102.224 96.6641 102.562 96.6641ZM108.914 92.7969C108.914 91.5938 108.935 90.526 108.977 89.5938L107.922 89.4297C107.854 89.237 107.802 89.0234 107.766 88.7891C107.729 88.5547 107.711 88.3281 107.711 88.1094C107.711 87.9427 107.724 87.7604 107.75 87.5625C108.432 87.3229 109.333 87.151 110.453 87.0469C111.573 86.9427 112.667 86.8906 113.734 86.8906C114.531 86.8906 115.216 86.9531 115.789 87.0781C116.362 87.2031 116.841 87.487 117.227 87.9297C117.617 88.3672 117.812 89.0234 117.812 89.8984C117.812 90.2578 117.755 90.6562 117.641 91.0938C117.526 91.526 117.367 91.9583 117.164 92.3906C116.977 92.7865 116.763 93.1641 116.523 93.5234C116.289 93.8776 116.044 94.1823 115.789 94.4375C115.94 94.8333 116.096 95.1953 116.258 95.5234C116.419 95.8464 116.667 96.2396 117 96.7031L118.094 96.2422C118.5 96.5911 118.737 97.0547 118.805 97.6328C118.805 97.6641 118.68 97.8125 118.43 98.0781C118.185 98.3438 117.865 98.5911 117.469 98.8203C117.073 99.0443 116.628 99.1562 116.133 99.1562C115.747 99.1562 115.401 99.0885 115.094 98.9531C114.792 98.8177 114.542 98.5807 114.344 98.2422C114.151 97.9089 113.997 97.513 113.883 97.0547C113.768 96.5964 113.688 96.1432 113.641 95.6953L111.859 95.6172C111.906 96.0234 111.966 96.4427 112.039 96.875C112.112 97.3021 112.156 97.5599 112.172 97.6484C112.26 98.1641 112.318 98.5156 112.344 98.7031C112.104 98.849 111.812 98.9609 111.469 99.0391C111.13 99.1172 110.784 99.1562 110.43 99.1562C110.023 99.1562 109.63 99.1016 109.25 98.9922C109.135 98.5339 109.049 97.7318 108.992 96.5859C108.94 95.4349 108.914 94.1719 108.914 92.7969ZM113.773 93.7344C113.956 93.2135 114.099 92.6484 114.203 92.0391C114.312 91.4245 114.411 90.6927 114.5 89.8438C114.349 89.7865 114.151 89.7422 113.906 89.7109C113.661 89.6797 113.424 89.6641 113.195 89.6641C112.674 89.6641 112.284 89.6771 112.023 89.7031C111.966 91.6615 111.904 93.0495 111.836 93.8672L113.773 93.7344ZM119.25 96.4922C119.297 96.5078 119.396 96.5443 119.547 96.6016C119.703 96.6536 119.875 96.6979 120.062 96.7344V89.375L118.836 88.9609C118.716 88.6797 118.656 88.3568 118.656 87.9922C118.656 87.6953 118.703 87.4297 118.797 87.1953C119.172 87.0964 119.622 87.0208 120.148 86.9688C120.68 86.9115 121.193 86.8828 121.688 86.8828C122.422 86.8828 123.07 86.9375 123.633 87.0469C123.893 87.5521 124.279 88.5026 124.789 89.8984C125.305 91.2943 125.924 93.125 126.648 95.3906L126.781 95.375C126.63 94.0885 126.479 92.5807 126.328 90.8516C126.182 89.1172 126.109 87.9297 126.109 87.2891C126.38 87.1641 126.682 87.0677 127.016 87C127.349 86.9271 127.656 86.8906 127.938 86.8906C128.396 86.8906 128.836 86.9844 129.258 87.1719L128.5 97.0469C128.771 97.4375 128.94 97.8958 129.008 98.4219C128.794 98.6562 128.469 98.8385 128.031 98.9688C127.599 99.0938 127.138 99.1562 126.648 99.1562C126.268 99.1562 125.922 99.1172 125.609 99.0391C125.302 98.9609 125.062 98.8411 124.891 98.6797C124.896 98.2891 124.93 97.9323 124.992 97.6094C124.602 96.8281 124.224 95.9688 123.859 95.0312C123.5 94.0885 123.042 92.8385 122.484 91.2812L122.141 90.3281L122.094 90.3359C122.203 91.1484 122.32 92.3464 122.445 93.9297C122.57 95.5078 122.633 96.6615 122.633 97.3906C122.633 97.974 122.458 98.4141 122.109 98.7109C121.766 99.0078 121.227 99.1562 120.492 99.1562C120.263 99.1562 120.018 99.112 119.758 99.0234C119.497 98.9349 119.26 98.8229 119.047 98.6875C118.839 98.5469 118.693 98.4115 118.609 98.2812C118.609 97.9062 118.667 97.5495 118.781 97.2109C118.896 96.8724 119.052 96.6328 119.25 96.4922ZM130.039 97.0859C130.039 96.6224 130.135 96.1719 130.328 95.7344C130.417 95.7344 130.555 95.7526 130.742 95.7891C130.935 95.8203 131.135 95.862 131.344 95.9141C131.312 94.5078 131.297 93.3542 131.297 92.4531C131.297 91.3333 131.318 90.3776 131.359 89.5859L130.156 89.4219C130.089 89.2292 130.036 89.0182 130 88.7891C129.964 88.5547 129.945 88.3281 129.945 88.1094C129.945 87.9427 129.958 87.7604 129.984 87.5625C130.604 87.3281 131.419 87.1589 132.43 87.0547C133.445 86.9453 134.469 86.8906 135.5 86.8906C136.474 86.8906 137.18 86.9349 137.617 87.0234C137.898 87.1953 138.143 87.3698 138.352 87.5469C138.565 87.7188 138.768 87.9323 138.961 88.1875C138.961 88.5521 138.924 88.9479 138.852 89.375C138.784 89.7969 138.688 90.1849 138.562 90.5391C138.443 90.8932 138.312 91.1484 138.172 91.3047C138.052 91.362 137.919 91.4062 137.773 91.4375C137.628 91.4635 137.448 91.4766 137.234 91.4766C137.047 91.4766 136.885 91.4609 136.75 91.4297C136.62 91.3932 136.495 91.3411 136.375 91.2734L136.109 89.5703C135.781 89.5182 135.391 89.4922 134.938 89.4922C134.812 89.4922 134.688 89.5 134.562 89.5156C134.542 90.2708 134.435 91.2995 134.242 92.6016C135.398 92.4089 136.385 92.2682 137.203 92.1797C137.411 92.4974 137.516 92.8854 137.516 93.3438C137.516 93.6458 137.474 93.9375 137.391 94.2188C137.307 94.5 137.216 94.6953 137.117 94.8047C136.898 94.8411 136.638 94.8594 136.336 94.8594C135.945 94.8594 135.539 94.8255 135.117 94.7578C134.701 94.6901 134.31 94.5911 133.945 94.4609L133.844 95.125C133.781 95.4948 133.727 95.8594 133.68 96.2188L138.625 95.9297C138.703 96.0026 138.768 96.1484 138.82 96.3672C138.878 96.5859 138.906 96.8255 138.906 97.0859C138.906 97.5026 138.823 97.8672 138.656 98.1797C138.49 98.4922 138.268 98.7344 137.992 98.9062C137.721 99.0729 137.43 99.1562 137.117 99.1562C136.805 99.1562 136.378 99.0885 135.836 98.9531C135.299 98.8125 134.776 98.638 134.266 98.4297C133.76 98.2214 133.388 98.0208 133.148 97.8281C132.909 98.2448 132.646 98.5625 132.359 98.7812C132.078 99 131.714 99.125 131.266 99.1562C131.042 99.1198 130.836 99.0052 130.648 98.8125C130.461 98.6198 130.312 98.3724 130.203 98.0703C130.094 97.7682 130.039 97.4401 130.039 97.0859ZM142.367 95.3125C142.112 94.9167 141.805 94.3854 141.445 93.7188C141.091 93.0521 140.742 92.3411 140.398 91.5859C140.06 90.8307 139.794 90.1406 139.602 89.5156L138.414 89.3516C138.336 89.0339 138.284 88.7708 138.258 88.5625C138.232 88.349 138.221 88.1042 138.227 87.8281C138.331 87.6979 138.518 87.5599 138.789 87.4141C139.055 87.263 139.362 87.138 139.711 87.0391C140.06 86.9401 140.404 86.8906 140.742 86.8906C141.711 86.8906 142.318 87.2552 142.562 87.9844C142.661 88.2135 142.812 88.6328 143.016 89.2422C143.224 89.8464 143.435 90.5286 143.648 91.2891C143.862 92.0495 144.029 92.7656 144.148 93.4375C144.466 92.8021 144.781 92.099 145.094 91.3281C145.406 90.5573 145.615 89.9479 145.719 89.5H145.703L144.75 89.3359C144.672 89.0182 144.62 88.7552 144.594 88.5469C144.568 88.3333 144.557 88.0885 144.562 87.8125C144.667 87.6823 144.852 87.5443 145.117 87.3984C145.388 87.2474 145.698 87.1224 146.047 87.0234C146.396 86.9245 146.74 86.875 147.078 86.875C148.078 86.875 148.69 87.2604 148.914 88.0312C148.971 88.224 149 88.4141 149 88.6016C149 89.1589 148.768 89.8646 148.305 90.7188C147.841 91.5729 147.307 92.4036 146.703 93.2109C146.099 94.0182 145.581 94.6562 145.148 95.125C145.039 95.7969 144.94 96.3229 144.852 96.7031L144.867 96.7188L146.023 96.2344C146.43 96.5833 146.667 97.0469 146.734 97.625C146.734 97.6562 146.609 97.8047 146.359 98.0703C146.115 98.3359 145.794 98.5833 145.398 98.8125C145.003 99.0365 144.557 99.1484 144.062 99.1484C143.552 99.1484 143.138 99.0052 142.82 98.7188C142.503 98.4323 142.346 97.9427 142.352 97.25L142.367 95.3125ZM149.305 97.2891C149.305 97.0234 149.354 96.7552 149.453 96.4844C149.552 96.2135 149.706 95.9583 149.914 95.7188C150.674 96.0521 151.336 96.3073 151.898 96.4844C152.466 96.6615 153.049 96.75 153.648 96.75C153.758 96.75 153.87 96.7396 153.984 96.7188C154.104 96.6979 154.198 96.6693 154.266 96.6328C154.292 96.5755 154.312 96.5026 154.328 96.4141C154.344 96.3203 154.352 96.2448 154.352 96.1875C154.352 95.9323 154.229 95.7135 153.984 95.5312C153.74 95.349 153.417 95.1667 153.016 94.9844L152.742 94.8516C151.961 94.4505 151.333 94.0911 150.859 93.7734C150.391 93.4505 149.992 93.0286 149.664 92.5078C149.341 91.9818 149.18 91.3385 149.18 90.5781C149.18 89.4635 149.49 88.5703 150.109 87.8984C150.734 87.2266 151.727 86.8906 153.086 86.8906C154.247 86.8906 155.167 86.9609 155.844 87.1016C156.125 87.2682 156.37 87.4427 156.578 87.625C156.792 87.8021 156.995 88.0182 157.188 88.2734C157.188 88.638 157.151 89.0339 157.078 89.4609C157.01 89.8828 156.914 90.2708 156.789 90.625C156.669 90.9792 156.539 91.2344 156.398 91.3906C156.279 91.4479 156.146 91.4922 156 91.5234C155.854 91.5495 155.674 91.5625 155.461 91.5625C155.237 91.5625 155.055 91.5469 154.914 91.5156C154.773 91.4844 154.643 91.4323 154.523 91.3594L154.281 89.7344C153.979 89.651 153.659 89.5911 153.32 89.5547C152.982 89.513 152.753 89.4948 152.633 89.5C152.44 89.5885 152.307 89.7135 152.234 89.875C152.167 90.0312 152.133 90.2188 152.133 90.4375C152.133 90.6719 152.195 90.875 152.32 91.0469C152.451 91.2135 152.607 91.3516 152.789 91.4609C152.971 91.5703 153.206 91.6927 153.492 91.8281L153.836 92C154.581 92.3906 155.167 92.7318 155.594 93.0234C156.021 93.3151 156.378 93.6849 156.664 94.1328C156.956 94.5755 157.102 95.112 157.102 95.7422C157.102 96.4766 156.909 97.1094 156.523 97.6406C156.138 98.1667 155.643 98.5469 155.039 98.7812C154.711 98.9115 154.349 99.0052 153.953 99.0625C153.557 99.1198 153.099 99.1484 152.578 99.1484C152.224 99.1484 151.844 99.1042 151.438 99.0156C151.031 98.9271 150.635 98.7708 150.25 98.5469C149.87 98.3229 149.565 98.0234 149.336 97.6484C149.315 97.5495 149.305 97.4297 149.305 97.2891ZM163.617 92.9766C163.352 92.8099 163.089 92.5911 162.828 92.3203C162.568 92.0495 162.349 91.737 162.172 91.3828C162 91.0286 161.914 90.6589 161.914 90.2734C161.914 89.5026 162.086 88.8646 162.43 88.3594C162.773 87.8542 163.234 87.4818 163.812 87.2422C164.396 87.0026 165.049 86.8828 165.773 86.8828C167.466 86.8828 168.544 87.1589 169.008 87.7109C169.034 87.8776 169.047 88.0208 169.047 88.1406C169.047 88.7083 168.841 89.2839 168.43 89.8672C167.961 89.6484 167.474 89.4896 166.969 89.3906C166.464 89.2917 166.083 89.2422 165.828 89.2422C165.646 89.2422 165.469 89.2604 165.297 89.2969C165.13 89.3281 164.982 89.375 164.852 89.4375C164.799 89.5104 164.76 89.6328 164.734 89.8047C164.708 89.9766 164.695 90.138 164.695 90.2891C164.898 90.6797 165.375 91.1042 166.125 91.5625L166.195 91.5156C166.456 91.349 166.875 91.1328 167.453 90.8672C168.031 90.6016 168.599 90.3698 169.156 90.1719C169.719 89.9688 170.133 89.8672 170.398 89.8672C170.576 89.8672 170.763 89.901 170.961 89.9688C171.159 90.0312 171.331 90.112 171.477 90.2109C171.628 90.3047 171.721 90.388 171.758 90.4609C171.846 90.6432 171.891 90.888 171.891 91.1953C171.891 91.5286 171.841 91.888 171.742 92.2734C171.648 92.6589 171.531 92.9974 171.391 93.2891C171.25 93.5807 171.115 93.7552 170.984 93.8125H169.797L169.617 92.3516C169.383 92.3464 169.135 92.375 168.875 92.4375C168.615 92.4948 168.305 92.5807 167.945 92.6953C168.659 93.2057 169.161 93.6927 169.453 94.1562C169.75 94.6146 169.898 95.0938 169.898 95.5938C169.898 96.3021 169.724 96.9245 169.375 97.4609C169.031 97.9974 168.547 98.4141 167.922 98.7109C167.302 99.0026 166.594 99.1484 165.797 99.1484C165.057 99.1484 164.367 99.0156 163.727 98.75C163.091 98.4844 162.578 98.0964 162.188 97.5859C161.802 97.0703 161.609 96.4557 161.609 95.7422C161.609 95.2839 161.703 94.8854 161.891 94.5469C162.078 94.2083 162.307 93.9271 162.578 93.7031C162.849 93.4792 163.195 93.237 163.617 92.9766ZM165.789 97.1172C166.294 97.1172 166.688 97.0052 166.969 96.7812C167.016 96.6927 167.052 96.5208 167.078 96.2656C167.104 96.0104 167.117 95.8021 167.117 95.6406C166.919 95.3594 166.667 95.0885 166.359 94.8281C166.052 94.5625 165.69 94.3307 165.273 94.1328C165.003 94.2995 164.747 94.5078 164.508 94.7578C164.273 95.0026 164.112 95.2552 164.023 95.5156C164.044 95.7812 164.12 96.0547 164.25 96.3359C164.385 96.6172 164.547 96.8229 164.734 96.9531C165.062 97.0625 165.414 97.1172 165.789 97.1172ZM176.07 93.0312C176.07 91.849 176.245 90.7969 176.594 89.875C176.948 88.9479 177.5 88.2161 178.25 87.6797C179 87.1432 179.948 86.875 181.094 86.875C181.875 86.875 182.701 86.9766 183.57 87.1797C183.852 87.3464 184.096 87.5208 184.305 87.7031C184.518 87.8802 184.721 88.0964 184.914 88.3516C184.914 88.7214 184.865 89.2135 184.766 89.8281C184.667 90.4375 184.542 91.0078 184.391 91.5391C184.245 92.0651 184.104 92.4062 183.969 92.5625C183.833 92.6302 183.719 92.6771 183.625 92.7031C183.531 92.724 183.385 92.7344 183.188 92.7344C182.943 92.7344 182.714 92.7161 182.5 92.6797C182.286 92.6432 182.125 92.5938 182.016 92.5312L181.742 89.8984C181.372 89.7943 180.859 89.7422 180.203 89.7422C180.026 89.7422 179.896 89.7448 179.812 89.75C179.589 90.4688 179.464 91.4349 179.438 92.6484C179.432 92.7943 179.43 93.0156 179.43 93.3125C179.43 94.0104 179.466 94.5755 179.539 95.0078C179.607 95.4141 179.68 95.7188 179.758 95.9219C179.836 96.125 179.971 96.2812 180.164 96.3906C180.362 96.5 180.656 96.5547 181.047 96.5547C181.573 96.5547 182.057 96.4792 182.5 96.3281C182.948 96.1719 183.435 95.9453 183.961 95.6484C184.159 95.862 184.31 96.0365 184.414 96.1719C184.523 96.3073 184.622 96.474 184.711 96.6719C184.805 96.8698 184.867 97.0964 184.898 97.3516C184.815 97.5234 184.594 97.7526 184.234 98.0391C183.875 98.3255 183.404 98.5833 182.82 98.8125C182.237 99.0417 181.583 99.1562 180.859 99.1562C179.167 99.1562 177.945 98.6276 177.195 97.5703C176.445 96.513 176.07 95 176.07 93.0312ZM185.688 93.0938C185.688 88.9583 187.312 86.8906 190.562 86.8906C191.849 86.8906 192.852 87.1589 193.57 87.6953C194.294 88.2266 194.792 88.9453 195.062 89.8516C195.339 90.7526 195.477 91.8333 195.477 93.0938C195.477 94.9479 195.096 96.4219 194.336 97.5156C193.576 98.6094 192.318 99.1562 190.562 99.1562C188.797 99.1562 187.542 98.6146 186.797 97.5312C186.057 96.4479 185.688 94.9688 185.688 93.0938ZM190.953 96.6641C191.38 96.6641 191.625 96.6406 191.688 96.5938C191.818 96.3646 191.917 95.9661 191.984 95.3984C192.052 94.8255 192.086 94.1849 192.086 93.4766C192.086 92.7318 192.049 92.0417 191.977 91.4062C191.909 90.7656 191.812 90.3177 191.688 90.0625C191.557 89.9583 191.365 89.8802 191.109 89.8281C190.854 89.776 190.573 89.7474 190.266 89.7422C190.089 89.7422 189.927 89.7526 189.781 89.7734C189.641 89.7891 189.539 89.8151 189.477 89.8516C189.326 90.112 189.214 90.4896 189.141 90.9844C189.073 91.474 189.039 92.0339 189.039 92.6641C189.039 93.3776 189.078 94.0885 189.156 94.7969C189.234 95.5052 189.331 96.0469 189.445 96.4219C189.518 96.5 189.703 96.5599 190 96.6016C190.297 96.6432 190.615 96.6641 190.953 96.6641ZM196.445 89.2812C196.352 88.9844 196.286 88.7734 196.25 88.6484C196.219 88.5182 196.195 88.3802 196.18 88.2344C196.169 88.0833 196.164 87.8646 196.164 87.5781C196.602 87.3333 197.01 87.1589 197.391 87.0547C197.776 86.9453 198.211 86.8906 198.695 86.8906C200.138 86.8906 200.859 87.612 200.859 89.0547C200.859 89.5078 200.812 90.1797 200.719 91.0703C200.63 91.9609 200.513 93.0391 200.367 94.3047C200.279 95.0391 200.214 95.6094 200.172 96.0156C200.271 96.125 200.388 96.1953 200.523 96.2266C200.596 96.2578 200.812 96.138 201.172 95.8672C201.536 95.5911 201.906 95.263 202.281 94.8828C202.661 94.4974 202.932 94.151 203.094 93.8438C202.948 91.0312 202.721 88.9531 202.414 87.6094C202.648 87.375 202.953 87.1979 203.328 87.0781C203.703 86.9531 204.068 86.8906 204.422 86.8906C204.724 86.8906 205.013 86.9245 205.289 86.9922C205.57 87.0547 205.812 87.1615 206.016 87.3125C206.177 87.6667 206.258 88.2474 206.258 89.0547C206.258 89.5026 206.214 90.237 206.125 91.2578C206.042 92.2734 205.935 93.2812 205.805 94.2812C205.68 95.276 205.557 96 205.438 96.4531L206.398 96.0312C206.56 96.1979 206.703 96.4089 206.828 96.6641C206.953 96.9141 207.034 97.2005 207.07 97.5234C206.987 97.6901 206.815 97.9036 206.555 98.1641C206.294 98.4245 205.974 98.6562 205.594 98.8594C205.219 99.0573 204.823 99.1562 204.406 99.1562C203.943 99.1562 203.586 99.0182 203.336 98.7422C203.091 98.4661 202.969 98.112 202.969 97.6797C202.969 97.5755 202.99 97.349 203.031 97C203.078 96.651 203.12 96.4349 203.156 96.3516L202.922 96.2734C202.641 96.8307 202.346 97.3177 202.039 97.7344C201.737 98.151 201.378 98.4922 200.961 98.7578C200.544 99.0234 200.07 99.1562 199.539 99.1562C198.711 99.1562 198.13 98.862 197.797 98.2734C197.464 97.6797 197.297 96.9375 197.297 96.0469C197.297 94.9688 197.31 93.737 197.336 92.3516C197.362 90.9661 197.404 89.9844 197.461 89.4062L196.445 89.2812ZM207.891 96.4922C207.938 96.5078 208.036 96.5443 208.188 96.6016C208.344 96.6536 208.516 96.6979 208.703 96.7344V89.375L207.477 88.9609C207.357 88.6797 207.297 88.3568 207.297 87.9922C207.297 87.6953 207.344 87.4297 207.438 87.1953C207.812 87.0964 208.263 87.0208 208.789 86.9688C209.32 86.9115 209.833 86.8828 210.328 86.8828C211.062 86.8828 211.711 86.9375 212.273 87.0469C212.534 87.5521 212.919 88.5026 213.43 89.8984C213.945 91.2943 214.565 93.125 215.289 95.3906L215.422 95.375C215.271 94.0885 215.12 92.5807 214.969 90.8516C214.823 89.1172 214.75 87.9297 214.75 87.2891C215.021 87.1641 215.323 87.0677 215.656 87C215.99 86.9271 216.297 86.8906 216.578 86.8906C217.036 86.8906 217.477 86.9844 217.898 87.1719L217.141 97.0469C217.411 97.4375 217.581 97.8958 217.648 98.4219C217.435 98.6562 217.109 98.8385 216.672 98.9688C216.24 99.0938 215.779 99.1562 215.289 99.1562C214.909 99.1562 214.562 99.1172 214.25 99.0391C213.943 98.9609 213.703 98.8411 213.531 98.6797C213.536 98.2891 213.57 97.9323 213.633 97.6094C213.242 96.8281 212.865 95.9688 212.5 95.0312C212.141 94.0885 211.682 92.8385 211.125 91.2812L210.781 90.3281L210.734 90.3359C210.844 91.1484 210.961 92.3464 211.086 93.9297C211.211 95.5078 211.273 96.6615 211.273 97.3906C211.273 97.974 211.099 98.4141 210.75 98.7109C210.406 99.0078 209.867 99.1562 209.133 99.1562C208.904 99.1562 208.659 99.112 208.398 99.0234C208.138 98.9349 207.901 98.8229 207.688 98.6875C207.479 98.5469 207.333 98.4115 207.25 98.2812C207.25 97.9062 207.307 97.5495 207.422 97.2109C207.536 96.8724 207.693 96.6328 207.891 96.4922ZM218.883 97.2891C218.883 97.0234 218.932 96.7552 219.031 96.4844C219.13 96.2135 219.284 95.9583 219.492 95.7188C220.253 96.0521 220.914 96.3073 221.477 96.4844C222.044 96.6615 222.628 96.75 223.227 96.75C223.336 96.75 223.448 96.7396 223.562 96.7188C223.682 96.6979 223.776 96.6693 223.844 96.6328C223.87 96.5755 223.891 96.5026 223.906 96.4141C223.922 96.3203 223.93 96.2448 223.93 96.1875C223.93 95.9323 223.807 95.7135 223.562 95.5312C223.318 95.349 222.995 95.1667 222.594 94.9844L222.32 94.8516C221.539 94.4505 220.911 94.0911 220.438 93.7734C219.969 93.4505 219.57 93.0286 219.242 92.5078C218.919 91.9818 218.758 91.3385 218.758 90.5781C218.758 89.4635 219.068 88.5703 219.688 87.8984C220.312 87.2266 221.305 86.8906 222.664 86.8906C223.826 86.8906 224.745 86.9609 225.422 87.1016C225.703 87.2682 225.948 87.4427 226.156 87.625C226.37 87.8021 226.573 88.0182 226.766 88.2734C226.766 88.638 226.729 89.0339 226.656 89.4609C226.589 89.8828 226.492 90.2708 226.367 90.625C226.247 90.9792 226.117 91.2344 225.977 91.3906C225.857 91.4479 225.724 91.4922 225.578 91.5234C225.432 91.5495 225.253 91.5625 225.039 91.5625C224.815 91.5625 224.633 91.5469 224.492 91.5156C224.352 91.4844 224.221 91.4323 224.102 91.3594L223.859 89.7344C223.557 89.651 223.237 89.5911 222.898 89.5547C222.56 89.513 222.331 89.4948 222.211 89.5C222.018 89.5885 221.885 89.7135 221.812 89.875C221.745 90.0312 221.711 90.2188 221.711 90.4375C221.711 90.6719 221.773 90.875 221.898 91.0469C222.029 91.2135 222.185 91.3516 222.367 91.4609C222.549 91.5703 222.784 91.6927 223.07 91.8281L223.414 92C224.159 92.3906 224.745 92.7318 225.172 93.0234C225.599 93.3151 225.956 93.6849 226.242 94.1328C226.534 94.5755 226.68 95.112 226.68 95.7422C226.68 96.4766 226.487 97.1094 226.102 97.6406C225.716 98.1667 225.221 98.5469 224.617 98.7812C224.289 98.9115 223.927 99.0052 223.531 99.0625C223.135 99.1198 222.677 99.1484 222.156 99.1484C221.802 99.1484 221.422 99.1042 221.016 99.0156C220.609 98.9271 220.214 98.7708 219.828 98.5469C219.448 98.3229 219.143 98.0234 218.914 97.6484C218.893 97.5495 218.883 97.4297 218.883 97.2891ZM227.352 97.0859C227.352 96.6224 227.448 96.1719 227.641 95.7344C227.729 95.7344 227.867 95.7526 228.055 95.7891C228.247 95.8203 228.448 95.862 228.656 95.9141C228.625 94.5078 228.609 93.3542 228.609 92.4531C228.609 91.3333 228.63 90.3776 228.672 89.5859L227.469 89.4219C227.401 89.2292 227.349 89.0182 227.312 88.7891C227.276 88.5547 227.258 88.3281 227.258 88.1094C227.258 87.9427 227.271 87.7604 227.297 87.5625C227.917 87.3281 228.732 87.1589 229.742 87.0547C230.758 86.9453 231.781 86.8906 232.812 86.8906C233.786 86.8906 234.492 86.9349 234.93 87.0234C235.211 87.1953 235.456 87.3698 235.664 87.5469C235.878 87.7188 236.081 87.9323 236.273 88.1875C236.273 88.5521 236.237 88.9479 236.164 89.375C236.096 89.7969 236 90.1849 235.875 90.5391C235.755 90.8932 235.625 91.1484 235.484 91.3047C235.365 91.362 235.232 91.4062 235.086 91.4375C234.94 91.4635 234.76 91.4766 234.547 91.4766C234.359 91.4766 234.198 91.4609 234.062 91.4297C233.932 91.3932 233.807 91.3411 233.688 91.2734L233.422 89.5703C233.094 89.5182 232.703 89.4922 232.25 89.4922C232.125 89.4922 232 89.5 231.875 89.5156C231.854 90.2708 231.747 91.2995 231.555 92.6016C232.711 92.4089 233.698 92.2682 234.516 92.1797C234.724 92.4974 234.828 92.8854 234.828 93.3438C234.828 93.6458 234.786 93.9375 234.703 94.2188C234.62 94.5 234.529 94.6953 234.43 94.8047C234.211 94.8411 233.951 94.8594 233.648 94.8594C233.258 94.8594 232.852 94.8255 232.43 94.7578C232.013 94.6901 231.622 94.5911 231.258 94.4609L231.156 95.125C231.094 95.4948 231.039 95.8594 230.992 96.2188L235.938 95.9297C236.016 96.0026 236.081 96.1484 236.133 96.3672C236.19 96.5859 236.219 96.8255 236.219 97.0859C236.219 97.5026 236.135 97.8672 235.969 98.1797C235.802 98.4922 235.581 98.7344 235.305 98.9062C235.034 99.0729 234.742 99.1562 234.43 99.1562C234.117 99.1562 233.69 99.0885 233.148 98.9531C232.612 98.8125 232.089 98.638 231.578 98.4297C231.073 98.2214 230.701 98.0208 230.461 97.8281C230.221 98.2448 229.958 98.5625 229.672 98.7812C229.391 99 229.026 99.125 228.578 99.1562C228.354 99.1198 228.148 99.0052 227.961 98.8125C227.773 98.6198 227.625 98.3724 227.516 98.0703C227.406 97.7682 227.352 97.4401 227.352 97.0859ZM236.82 97.0234C236.82 96.5495 236.917 96.0938 237.109 95.6562C237.198 95.6562 237.336 95.6745 237.523 95.7109C237.711 95.7422 237.909 95.7839 238.117 95.8359C238.091 94.7161 238.078 93.6224 238.078 92.5547C238.078 91.4036 238.099 90.4219 238.141 89.6094H238.133L238.141 89.5156L236.867 89.3516C236.789 89.0339 236.737 88.7708 236.711 88.5625C236.685 88.349 236.674 88.1042 236.68 87.8281C236.846 87.6406 237.091 87.4766 237.414 87.3359C237.742 87.1901 238.094 87.0807 238.469 87.0078C238.849 86.9297 239.195 86.8906 239.508 86.8906C240.107 86.8906 240.573 87.0104 240.906 87.25C241.245 87.4844 241.438 87.8594 241.484 88.375C241.5 88.5781 241.508 88.7995 241.508 89.0391C241.508 89.8307 241.438 90.7682 241.297 91.8516C241.156 92.9349 240.969 94.2005 240.734 95.6484L240.672 96.0547L242.664 96.1641L243.477 93.5703C243.721 93.5599 244 93.5781 244.312 93.625C244.63 93.6719 244.904 93.737 245.133 93.8203C245.227 94.0651 245.312 94.4557 245.391 94.9922C245.474 95.5234 245.516 96.0443 245.516 96.5547C245.516 97.4036 245.391 98 245.141 98.3438C245.016 98.5104 244.841 98.6562 244.617 98.7812C244.398 98.901 244.167 98.9922 243.922 99.0547C243.682 99.1224 243.466 99.1562 243.273 99.1562C242.966 99.1562 242.607 99.0911 242.195 98.9609C241.784 98.8255 241.38 98.6562 240.984 98.4531C240.589 98.2448 240.263 98.0365 240.008 97.8281C239.773 98.2344 239.503 98.5495 239.195 98.7734C238.888 98.9974 238.505 99.125 238.047 99.1562C237.823 99.1198 237.617 99.0026 237.43 98.8047C237.242 98.6068 237.094 98.3516 236.984 98.0391C236.875 97.7266 236.82 97.388 236.82 97.0234ZM245.984 93.0938C245.984 88.9583 247.609 86.8906 250.859 86.8906C252.146 86.8906 253.148 87.1589 253.867 87.6953C254.591 88.2266 255.089 88.9453 255.359 89.8516C255.635 90.7526 255.773 91.8333 255.773 93.0938C255.773 94.9479 255.393 96.4219 254.633 97.5156C253.872 98.6094 252.615 99.1562 250.859 99.1562C249.094 99.1562 247.839 98.6146 247.094 97.5312C246.354 96.4479 245.984 94.9688 245.984 93.0938ZM251.25 96.6641C251.677 96.6641 251.922 96.6406 251.984 96.5938C252.115 96.3646 252.214 95.9661 252.281 95.3984C252.349 94.8255 252.383 94.1849 252.383 93.4766C252.383 92.7318 252.346 92.0417 252.273 91.4062C252.206 90.7656 252.109 90.3177 251.984 90.0625C251.854 89.9583 251.661 89.8802 251.406 89.8281C251.151 89.776 250.87 89.7474 250.562 89.7422C250.385 89.7422 250.224 89.7526 250.078 89.7734C249.938 89.7891 249.836 89.8151 249.773 89.8516C249.622 90.112 249.51 90.4896 249.438 90.9844C249.37 91.474 249.336 92.0339 249.336 92.6641C249.336 93.3776 249.375 94.0885 249.453 94.7969C249.531 95.5052 249.628 96.0469 249.742 96.4219C249.815 96.5 250 96.5599 250.297 96.6016C250.594 96.6432 250.911 96.6641 251.25 96.6641ZM257.602 92.7969C257.602 91.5938 257.622 90.526 257.664 89.5938L256.609 89.4297C256.542 89.237 256.49 89.0234 256.453 88.7891C256.417 88.5547 256.398 88.3281 256.398 88.1094C256.398 87.9427 256.411 87.7604 256.438 87.5625C257.12 87.3229 258.021 87.151 259.141 87.0469C260.26 86.9427 261.354 86.8906 262.422 86.8906C263.219 86.8906 263.904 86.9531 264.477 87.0781C265.049 87.2031 265.529 87.487 265.914 87.9297C266.305 88.3672 266.5 89.0234 266.5 89.8984C266.5 90.2578 266.443 90.6562 266.328 91.0938C266.214 91.526 266.055 91.9583 265.852 92.3906C265.664 92.7865 265.451 93.1641 265.211 93.5234C264.977 93.8776 264.732 94.1823 264.477 94.4375C264.628 94.8333 264.784 95.1953 264.945 95.5234C265.107 95.8464 265.354 96.2396 265.688 96.7031L266.781 96.2422C267.188 96.5911 267.424 97.0547 267.492 97.6328C267.492 97.6641 267.367 97.8125 267.117 98.0781C266.872 98.3438 266.552 98.5911 266.156 98.8203C265.76 99.0443 265.315 99.1562 264.82 99.1562C264.435 99.1562 264.089 99.0885 263.781 98.9531C263.479 98.8177 263.229 98.5807 263.031 98.2422C262.839 97.9089 262.685 97.513 262.57 97.0547C262.456 96.5964 262.375 96.1432 262.328 95.6953L260.547 95.6172C260.594 96.0234 260.654 96.4427 260.727 96.875C260.799 97.3021 260.844 97.5599 260.859 97.6484C260.948 98.1641 261.005 98.5156 261.031 98.7031C260.792 98.849 260.5 98.9609 260.156 99.0391C259.818 99.1172 259.471 99.1562 259.117 99.1562C258.711 99.1562 258.318 99.1016 257.938 98.9922C257.823 98.5339 257.737 97.7318 257.68 96.5859C257.628 95.4349 257.602 94.1719 257.602 92.7969ZM262.461 93.7344C262.643 93.2135 262.786 92.6484 262.891 92.0391C263 91.4245 263.099 90.6927 263.188 89.8438C263.036 89.7865 262.839 89.7422 262.594 89.7109C262.349 89.6797 262.112 89.6641 261.883 89.6641C261.362 89.6641 260.971 89.6771 260.711 89.7031C260.654 91.6615 260.591 93.0495 260.523 93.8672L262.461 93.7344ZM267.758 97.2891C267.758 97.0234 267.807 96.7552 267.906 96.4844C268.005 96.2135 268.159 95.9583 268.367 95.7188C269.128 96.0521 269.789 96.3073 270.352 96.4844C270.919 96.6615 271.503 96.75 272.102 96.75C272.211 96.75 272.323 96.7396 272.438 96.7188C272.557 96.6979 272.651 96.6693 272.719 96.6328C272.745 96.5755 272.766 96.5026 272.781 96.4141C272.797 96.3203 272.805 96.2448 272.805 96.1875C272.805 95.9323 272.682 95.7135 272.438 95.5312C272.193 95.349 271.87 95.1667 271.469 94.9844L271.195 94.8516C270.414 94.4505 269.786 94.0911 269.312 93.7734C268.844 93.4505 268.445 93.0286 268.117 92.5078C267.794 91.9818 267.633 91.3385 267.633 90.5781C267.633 89.4635 267.943 88.5703 268.562 87.8984C269.188 87.2266 270.18 86.8906 271.539 86.8906C272.701 86.8906 273.62 86.9609 274.297 87.1016C274.578 87.2682 274.823 87.4427 275.031 87.625C275.245 87.8021 275.448 88.0182 275.641 88.2734C275.641 88.638 275.604 89.0339 275.531 89.4609C275.464 89.8828 275.367 90.2708 275.242 90.625C275.122 90.9792 274.992 91.2344 274.852 91.3906C274.732 91.4479 274.599 91.4922 274.453 91.5234C274.307 91.5495 274.128 91.5625 273.914 91.5625C273.69 91.5625 273.508 91.5469 273.367 91.5156C273.227 91.4844 273.096 91.4323 272.977 91.3594L272.734 89.7344C272.432 89.651 272.112 89.5911 271.773 89.5547C271.435 89.513 271.206 89.4948 271.086 89.5C270.893 89.5885 270.76 89.7135 270.688 89.875C270.62 90.0312 270.586 90.2188 270.586 90.4375C270.586 90.6719 270.648 90.875 270.773 91.0469C270.904 91.2135 271.06 91.3516 271.242 91.4609C271.424 91.5703 271.659 91.6927 271.945 91.8281L272.289 92C273.034 92.3906 273.62 92.7318 274.047 93.0234C274.474 93.3151 274.831 93.6849 275.117 94.1328C275.409 94.5755 275.555 95.112 275.555 95.7422C275.555 96.4766 275.362 97.1094 274.977 97.6406C274.591 98.1667 274.096 98.5469 273.492 98.7812C273.164 98.9115 272.802 99.0052 272.406 99.0625C272.01 99.1198 271.552 99.1484 271.031 99.1484C270.677 99.1484 270.297 99.1042 269.891 99.0156C269.484 98.9271 269.089 98.7708 268.703 98.5469C268.323 98.3229 268.018 98.0234 267.789 97.6484C267.768 97.5495 267.758 97.4297 267.758 97.2891ZM280 96.4922C280.318 96.5964 280.607 96.6797 280.867 96.7422C281.372 94.7109 281.948 92.3125 282.594 89.5469L280.711 89.3438C280.591 89.0156 280.531 88.6432 280.531 88.2266C280.531 87.9089 280.568 87.599 280.641 87.2969C281.396 87.151 282.266 87.0469 283.25 86.9844C284.24 86.9167 285.089 86.8828 285.797 86.8828C286.307 86.8828 286.69 86.8854 286.945 86.8906L287.438 87.1719C288.312 89.5729 289.201 92.8203 290.102 96.9141C290.112 96.9557 290.13 97.0391 290.156 97.1641C290.188 97.2891 290.211 97.4089 290.227 97.5234C290.242 97.6328 290.25 97.737 290.25 97.8359C290.25 98.2734 290.094 98.6276 289.781 98.8984C289.344 99.0703 288.815 99.1562 288.195 99.1562C287.904 99.1562 287.609 99.125 287.312 99.0625C287.016 99 286.815 98.9036 286.711 98.7734L286.805 96.7578L286.609 95.7109C286.271 95.7318 285.872 95.7422 285.414 95.7422C284.924 95.7422 284.466 95.7266 284.039 95.6953L283.945 96.1172C283.742 97.0234 283.576 97.6667 283.445 98.0469C283.32 98.4271 283.133 98.7083 282.883 98.8906C282.638 99.0729 282.271 99.1641 281.781 99.1641C281.464 99.1641 281.143 99.1224 280.82 99.0391C280.497 98.9609 280.206 98.8542 279.945 98.7188C279.685 98.5833 279.49 98.4375 279.359 98.2812C279.359 97.9062 279.417 97.5495 279.531 97.2109C279.646 96.8724 279.802 96.6328 280 96.4922ZM285.477 89.6172H285.117L284.555 93.4688H286.305L285.477 89.6172ZM292.852 96.3438C293.232 96.4948 293.531 96.612 293.75 96.6953C293.969 96.7786 294.198 96.8516 294.438 96.9141C294.505 96.7422 294.539 96.5078 294.539 96.2109C294.539 95.8099 294.51 95.0755 294.453 94.0078C294.37 92.5807 294.328 91.487 294.328 90.7266C294.328 90.2005 294.344 89.7474 294.375 89.3672L293.086 89.2891L293.062 91.75C292.672 91.8802 292.232 91.9453 291.742 91.9453C291.617 91.9453 291.523 91.9427 291.461 91.9375C291.289 91.8021 291.109 91.5885 290.922 91.2969C290.74 91.0052 290.589 90.6771 290.469 90.3125C290.349 89.9479 290.289 89.5964 290.289 89.2578C290.289 88.6745 290.385 88.2292 290.578 87.9219C290.771 87.6146 291.042 87.4036 291.391 87.2891C291.74 87.1693 292.206 87.0911 292.789 87.0547C293.695 87.0026 294.76 86.9635 295.984 86.9375C297.214 86.9062 298.388 86.8906 299.508 86.8906C299.659 87.0833 299.771 87.2995 299.844 87.5391C299.922 87.7786 299.961 88.0182 299.961 88.2578C299.961 88.7057 299.846 89.0807 299.617 89.3828C299.388 89.6849 299.049 89.8359 298.602 89.8359C298.31 89.8359 297.958 89.7839 297.547 89.6797C297.453 92.1276 297.318 94.388 297.141 96.4609C297.104 96.862 297.044 97.2161 296.961 97.5234C296.878 97.8307 296.75 98.099 296.578 98.3281C296.365 98.6094 296.07 98.8177 295.695 98.9531C295.32 99.0885 294.906 99.1562 294.453 99.1562C294.026 99.1562 293.604 99.0807 293.188 98.9297C292.776 98.7786 292.466 98.5 292.258 98.0938C292.263 97.7552 292.305 97.4557 292.383 97.1953C292.461 96.9297 292.617 96.6458 292.852 96.3438ZM303.164 97.0234C303.164 96.5495 303.26 96.0938 303.453 95.6562C303.542 95.6562 303.68 95.6745 303.867 95.7109C304.055 95.7422 304.253 95.7839 304.461 95.8359C304.435 94.7161 304.422 93.6224 304.422 92.5547C304.422 91.4036 304.443 90.4219 304.484 89.6094H304.477L304.484 89.5156L303.211 89.3516C303.133 89.0339 303.081 88.7708 303.055 88.5625C303.029 88.349 303.018 88.1042 303.023 87.8281C303.19 87.6406 303.435 87.4766 303.758 87.3359C304.086 87.1901 304.438 87.0807 304.812 87.0078C305.193 86.9297 305.539 86.8906 305.852 86.8906C306.451 86.8906 306.917 87.0104 307.25 87.25C307.589 87.4844 307.781 87.8594 307.828 88.375C307.844 88.5781 307.852 88.7995 307.852 89.0391C307.852 89.8307 307.781 90.7682 307.641 91.8516C307.5 92.9349 307.312 94.2005 307.078 95.6484L307.016 96.0547L309.008 96.1641L309.82 93.5703C310.065 93.5599 310.344 93.5781 310.656 93.625C310.974 93.6719 311.247 93.737 311.477 93.8203C311.57 94.0651 311.656 94.4557 311.734 94.9922C311.818 95.5234 311.859 96.0443 311.859 96.5547C311.859 97.4036 311.734 98 311.484 98.3438C311.359 98.5104 311.185 98.6562 310.961 98.7812C310.742 98.901 310.51 98.9922 310.266 99.0547C310.026 99.1224 309.81 99.1562 309.617 99.1562C309.31 99.1562 308.951 99.0911 308.539 98.9609C308.128 98.8255 307.724 98.6562 307.328 98.4531C306.932 98.2448 306.607 98.0365 306.352 97.8281C306.117 98.2344 305.846 98.5495 305.539 98.7734C305.232 98.9974 304.849 99.125 304.391 99.1562C304.167 99.1198 303.961 99.0026 303.773 98.8047C303.586 98.6068 303.438 98.3516 303.328 98.0391C303.219 97.7266 303.164 97.388 303.164 97.0234ZM312.281 96.4922C312.599 96.5964 312.888 96.6797 313.148 96.7422C313.654 94.7109 314.229 92.3125 314.875 89.5469L312.992 89.3438C312.872 89.0156 312.812 88.6432 312.812 88.2266C312.812 87.9089 312.849 87.599 312.922 87.2969C313.677 87.151 314.547 87.0469 315.531 86.9844C316.521 86.9167 317.37 86.8828 318.078 86.8828C318.589 86.8828 318.971 86.8854 319.227 86.8906L319.719 87.1719C320.594 89.5729 321.482 92.8203 322.383 96.9141C322.393 96.9557 322.411 97.0391 322.438 97.1641C322.469 97.2891 322.492 97.4089 322.508 97.5234C322.523 97.6328 322.531 97.737 322.531 97.8359C322.531 98.2734 322.375 98.6276 322.062 98.8984C321.625 99.0703 321.096 99.1562 320.477 99.1562C320.185 99.1562 319.891 99.125 319.594 99.0625C319.297 99 319.096 98.9036 318.992 98.7734L319.086 96.7578L318.891 95.7109C318.552 95.7318 318.154 95.7422 317.695 95.7422C317.206 95.7422 316.747 95.7266 316.32 95.6953L316.227 96.1172C316.023 97.0234 315.857 97.6667 315.727 98.0469C315.602 98.4271 315.414 98.7083 315.164 98.8906C314.919 99.0729 314.552 99.1641 314.062 99.1641C313.745 99.1641 313.424 99.1224 313.102 99.0391C312.779 98.9609 312.487 98.8542 312.227 98.7188C311.966 98.5833 311.771 98.4375 311.641 98.2812C311.641 97.9062 311.698 97.5495 311.812 97.2109C311.927 96.8724 312.083 96.6328 312.281 96.4922ZM317.758 89.6172H317.398L316.836 93.4688H318.586L317.758 89.6172ZM325.031 95.6406C324.656 94.0938 324.326 92.7995 324.039 91.7578C323.753 90.7109 323.523 90.0599 323.352 89.8047L322.57 89.75C322.419 89.3542 322.312 88.8672 322.25 88.2891C322.339 88.0026 322.505 87.7552 322.75 87.5469C322.995 87.3333 323.281 87.1719 323.609 87.0625C323.938 86.9531 324.268 86.8984 324.602 86.8984C325.362 86.8984 325.93 87.2474 326.305 87.9453C326.477 88.263 326.622 88.6458 326.742 89.0938C326.862 89.5365 326.974 90.0625 327.078 90.6719C327.25 91.6979 327.37 92.6198 327.438 93.4375C327.505 94.25 327.56 95.1146 327.602 96.0312L327.633 96.7344H327.75C327.88 96.4479 328.023 95.8307 328.18 94.8828C328.336 93.9349 328.471 92.9323 328.586 91.875C328.701 90.8125 328.763 90.0234 328.773 89.5078L327.789 89.3594C327.716 89.0833 327.669 88.8359 327.648 88.6172C327.628 88.3984 327.617 88.1328 327.617 87.8203C327.727 87.6849 327.909 87.5443 328.164 87.3984C328.419 87.2526 328.716 87.1302 329.055 87.0312C329.393 86.9323 329.729 86.8828 330.062 86.8828C330.51 86.8828 330.914 86.9583 331.273 87.1094C331.638 87.2552 331.927 87.474 332.141 87.7656C332.359 88.0573 332.471 88.4141 332.477 88.8359V90.0391C332.711 90.9505 332.914 92.0208 333.086 93.25C333.263 94.474 333.393 95.6328 333.477 96.7266H333.562C333.688 96.4349 333.828 95.8151 333.984 94.8672C334.146 93.9141 334.286 92.9115 334.406 91.8594C334.526 90.8021 334.589 90.0182 334.594 89.5078L333.672 89.3594C333.599 89.0833 333.552 88.8359 333.531 88.6172C333.51 88.3984 333.5 88.1328 333.5 87.8203C333.604 87.6849 333.786 87.5443 334.047 87.3984C334.307 87.2526 334.607 87.1302 334.945 87.0312C335.289 86.9323 335.628 86.8828 335.961 86.8828C336.643 86.8828 337.154 87.0599 337.492 87.4141C337.831 87.7682 338 88.3073 338 89.0312C338 89.7188 337.885 90.6042 337.656 91.6875C337.427 92.7708 337.141 93.7891 336.797 94.7422C336.5 95.5755 336.208 96.2969 335.922 96.9062C335.635 97.5104 335.281 98.1042 334.859 98.6875C334.688 98.8646 334.461 98.987 334.18 99.0547C333.904 99.1224 333.617 99.1562 333.32 99.1562C332.294 99.1562 331.536 98.9583 331.047 98.5625L331.258 96.9609L330.75 94.3281C330.63 93.6354 330.552 93.0833 330.516 92.6719L330.414 92.6641L330.391 93.6562C330.219 94.6771 330.008 95.625 329.758 96.5C329.513 97.3698 329.232 98.099 328.914 98.6875C328.763 98.8594 328.555 98.9792 328.289 99.0469C328.023 99.1198 327.753 99.1562 327.477 99.1562C326.409 99.1562 325.656 98.9609 325.219 98.5703L325.391 97.1016L325.031 95.6406ZM338.602 97.2891C338.602 97.0234 338.651 96.7552 338.75 96.4844C338.849 96.2135 339.003 95.9583 339.211 95.7188C339.971 96.0521 340.633 96.3073 341.195 96.4844C341.763 96.6615 342.346 96.75 342.945 96.75C343.055 96.75 343.167 96.7396 343.281 96.7188C343.401 96.6979 343.495 96.6693 343.562 96.6328C343.589 96.5755 343.609 96.5026 343.625 96.4141C343.641 96.3203 343.648 96.2448 343.648 96.1875C343.648 95.9323 343.526 95.7135 343.281 95.5312C343.036 95.349 342.714 95.1667 342.312 94.9844L342.039 94.8516C341.258 94.4505 340.63 94.0911 340.156 93.7734C339.688 93.4505 339.289 93.0286 338.961 92.5078C338.638 91.9818 338.477 91.3385 338.477 90.5781C338.477 89.4635 338.786 88.5703 339.406 87.8984C340.031 87.2266 341.023 86.8906 342.383 86.8906C343.544 86.8906 344.464 86.9609 345.141 87.1016C345.422 87.2682 345.667 87.4427 345.875 87.625C346.089 87.8021 346.292 88.0182 346.484 88.2734C346.484 88.638 346.448 89.0339 346.375 89.4609C346.307 89.8828 346.211 90.2708 346.086 90.625C345.966 90.9792 345.836 91.2344 345.695 91.3906C345.576 91.4479 345.443 91.4922 345.297 91.5234C345.151 91.5495 344.971 91.5625 344.758 91.5625C344.534 91.5625 344.352 91.5469 344.211 91.5156C344.07 91.4844 343.94 91.4323 343.82 91.3594L343.578 89.7344C343.276 89.651 342.956 89.5911 342.617 89.5547C342.279 89.513 342.049 89.4948 341.93 89.5C341.737 89.5885 341.604 89.7135 341.531 89.875C341.464 90.0312 341.43 90.2188 341.43 90.4375C341.43 90.6719 341.492 90.875 341.617 91.0469C341.747 91.2135 341.904 91.3516 342.086 91.4609C342.268 91.5703 342.503 91.6927 342.789 91.8281L343.133 92C343.878 92.3906 344.464 92.7318 344.891 93.0234C345.318 93.3151 345.674 93.6849 345.961 94.1328C346.253 94.5755 346.398 95.112 346.398 95.7422C346.398 96.4766 346.206 97.1094 345.82 97.6406C345.435 98.1667 344.94 98.5469 344.336 98.7812C344.008 98.9115 343.646 99.0052 343.25 99.0625C342.854 99.1198 342.396 99.1484 341.875 99.1484C341.521 99.1484 341.141 99.1042 340.734 99.0156C340.328 98.9271 339.932 98.7708 339.547 98.5469C339.167 98.3229 338.862 98.0234 338.633 97.6484C338.612 97.5495 338.602 97.4297 338.602 97.2891Z" fill="#9E101C"/>
</svg>
